M48
;FILE_FORMAT=2:2
INCH
T01C0.016
T02C0.031
T03C0.035
T04C0.035
T05C0.039
T06C0.122
%
;TYPE=PLATED
T02
X+044330Y+063307
X+042755
X+041968
X+043543
X+056614Y+058468
Y+055468
Y+054468
Y+059468
Y+056468
;TYPE=PLATED
T03
X+054000Y+044000
X+055000
X+052000
X+051000
X+055000Y+045000
X+053000Y+044000
X+054000Y+062000
X+055000
X+052000
X+051000
X+054000Y+063000
X+055000
X+052000
X+051000
X+053000Y+062000
Y+063000
X+075000Y+044000
X+076000
X+073000
X+072000
X+075000Y+045000
X+076000
X+073000
X+072000
X+074000Y+044000
Y+045000
;TYPE=PLATED
T04
X+044665Y+045570
X+043956Y+059251
X+044448
X+045393Y+044527
X+046358Y+045511
X+047440Y+051909
X+046692Y+056220
X+047342Y+057814
X+045433Y+059251
X+046338Y+059330
X+046870Y+057224
X+046948Y+059311
X+046023Y+060275
X+046791Y+060885
X+050590Y+063602
X+054901Y+049625
Y+052027
X+056397
X+054291Y+051771
X+054251Y+059645
X+054645Y+057421
X+055531Y+060531
X+054960Y+060393
X+059429Y+057322
X+061240Y+050314
X+061712Y+050551
X+062657Y+050767
X+062185Y+057322
X+061397Y+060925
X+063681Y+048208
X+063700Y+050610
X+063956Y+056338
X+064527Y+058307
X+064960Y+058877
X+064389Y+060393
X+065275Y+063602
X+066220Y+043996
X+066555Y+047578
X+066692Y+045511
X+069488Y+061043
X+059015Y+056948
X+063700Y+051062
X+072716Y+041870
X+072775Y+056870
X+044901Y+059251
X+056929Y+050039
X+059921Y+058208
X+059980Y+058976
X+059921Y+060629
X+062913Y+057322
X+044842Y+050807
X+056614Y+053468
;TYPE=PLATED
T05
X+044149Y+039980
X+043165
X+047102
X+046118
X+042181
X+045133
X+043169Y+042125
X+042185
X+047165Y+047145
Y+046161
Y+048129
X+055905Y+047244
Y+048228
X+058267Y+047244
Y+048228
X+053543Y+047244
Y+048228
X+054000Y+045000
X+052000
X+051000
X+053000
X+056889Y+044665
X+057874
X+058405Y+052007
X+059389
X+051811Y+055511
Y+056496
Y+052460
Y+053444
X+071795Y+041220
X+069826
X+068842
X+066874
X+065889
X+070811
X+067858
X+064905
X+069885Y+059645
X+070870
X+066933
X+067917
X+071854
X+068901
X+069885Y+057244
X+070870
X+066933
X+067917
X+071854
X+068901
X+078976Y+039586
Y+040570
X+042125Y+047318
Y+049287
Y+050271
Y+048303
X+058110Y+059956
Y+058972
Y+062909
Y+061925
Y+057988
Y+060940
X+067417Y+062775
X+066433
X+070370
X+069385
X+068401
X+049527Y+047145
Y+046161
Y+048129
X+048051Y+058311
Y+056342
Y+055358
Y+053389
Y+052405
Y+057326
Y+054374
Y+051421
X+060629Y+047244
Y+048228
X+073901Y+046633
X+074885
X+070948
X+071933
X+075870
X+072917
X+062023Y+044665
X+061039
X+064976
X+063992
X+060055
X+063007
X+076874Y+057244
X+077858
X+073921
X+074905
X+078842
X+075889
X+061476Y+052007
X+062460
X+073901Y+049055
X+074885
X+070948
X+071933
X+075870
X+072917
X+075000Y+062000
X+076000
X+073000
X+072000
X+075000Y+063000
X+076000
X+073000
X+072000
X+074000Y+062000
Y+063000
X+064157Y+062460
X+062188
X+061204
X+063173
;TYPE=NON_PLATED
T06
X+079480Y+043826
X+048771Y+060362
X+079480Y+063118
X+047984Y+043826
X+051330Y+058787
X+074559Y+040677
X+078692Y+046582
X+047984Y+063118
X+051330Y+048157
X+078692Y+060362
T00
M30
