0
SECTION
2
HEADER
9
$ACADVER
1
AC1009
9
$TEXTSTYLE
7
STANDARD
9
$CECOLOR
62
256
9
$AUNITS
70
0
9
$LUNITS
70
3
9
$EXTMIN
10
2.8690157
20
2.3375197
9
$EXTMAX
10
6.0286220
20
3.1349213
9
$FILLMODE
70
1
0
ENDSEC
0
SECTION
2
TABLES
0
TABLE
2
LAYER
70
2
0
LAYER
2
Board
70
64
62
3
6
CONTINUOUS
0
LAYER
2
Bot_Assy
70
64
62
11
6
CONTINUOUS
0
LAYER
2
Drill_Layer
70
64
62
255
6
CONTINUOUS
0
ENDTAB
0
ENDSEC
0
SECTION
2
BLOCKS
0
BLOCK
2
UNIT_DISC
8
0
70
0
10
0.0000000
20
0.0000000
0
POLYLINE
8
0
6
CONTINUOUS
66
1
70
1
40
0.5000000
41
0.5000000
0
VERTEX
8
0
10
0.2500000
20
0.0000000
42
1.0000000
0
VERTEX
8
0
10
-0.2500000
20
0.0000000
42
1.0000000
0
SEQEND
0
ENDBLK
0
BLOCK
2
UNIT_CIRCLE
8
0
70
0
10
0.0000000
20
0.0000000
0
CIRCLE
8
0
6
CONTINUOUS
10
0.0000000
20
0.0000000
40
0.5000000
0
ENDBLK
0
BLOCK
2
M3
8
0
70
0
10
0.0000000
20
0.0000000
0
ENDBLK
0
BLOCK
2
rc0805mini52_F
8
0
70
0
10
0.0000000
20
0.0000000
0
ENDBLK
0
BLOCK
2
rc0805mini55_F
8
0
70
0
10
0.0000000
20
0.0000000
0
ENDBLK
0
BLOCK
2
mini22
8
0
70
0
10
0.0000000
20
0.0000000
0
ENDBLK
0
BLOCK
2
rc0805mini36
8
0
70
0
10
0.0000000
20
0.0000000
0
ENDBLK
0
BLOCK
2
rc0805mini22
8
0
70
0
10
0.0000000
20
0.0000000
0
ENDBLK
0
BLOCK
2
rc0805mini29_F
8
0
70
0
10
0.0000000
20
0.0000000
0
ENDBLK
0
BLOCK
2
rc0805mini11_F
8
0
70
0
10
0.0000000
20
0.0000000
0
ENDBLK
0
BLOCK
2
bas21vd34
8
0
70
0
10
0.0000000
20
0.0000000
0
ENDBLK
0
BLOCK
2
bas21vd11
8
0
70
0
10
0.0000000
20
0.0000000
0
ENDBLK
0
BLOCK
2
bas21vd22
8
0
70
0
10
0.0000000
20
0.0000000
0
ENDBLK
0
BLOCK
2
mini11
8
0
70
0
10
0.0000000
20
0.0000000
0
ENDBLK
0
BLOCK
2
bas21vd39
8
0
70
0
10
0.0000000
20
0.0000000
0
ENDBLK
0
BLOCK
2
bas21vd37
8
0
70
0
10
0.0000000
20
0.0000000
0
ENDBLK
0
BLOCK
2
bas21vd56
8
0
70
0
10
0.0000000
20
0.0000000
0
ENDBLK
0
BLOCK
2
bas21vd40
8
0
70
0
10
0.0000000
20
0.0000000
0
ENDBLK
0
BLOCK
2
rc0805mini42
8
0
70
0
10
0.0000000
20
0.0000000
0
ENDBLK
0
BLOCK
2
rc0805mini40
8
0
70
0
10
0.0000000
20
0.0000000
0
ENDBLK
0
BLOCK
2
mini2
8
0
70
0
10
0.0000000
20
0.0000000
0
ENDBLK
0
BLOCK
2
rc0805mini2_F
8
0
70
0
10
0.0000000
20
0.0000000
0
ENDBLK
0
BLOCK
2
rc0805mini10_F
8
0
70
0
10
0.0000000
20
0.0000000
0
ENDBLK
0
BLOCK
2
mini56
8
0
70
0
10
0.0000000
20
0.0000000
0
ENDBLK
0
BLOCK
2
mini36
8
0
70
0
10
0.0000000
20
0.0000000
0
ENDBLK
0
BLOCK
2
rc0805mini56
8
0
70
0
10
0.0000000
20
0.0000000
0
ENDBLK
0
BLOCK
2
rc0805mini38
8
0
70
0
10
0.0000000
20
0.0000000
0
ENDBLK
0
BLOCK
2
1__2_6
8
0
70
0
10
0.0000000
20
0.0000000
0
ENDBLK
0
BLOCK
2
bas21vd45
8
0
70
0
10
0.0000000
20
0.0000000
0
ENDBLK
0
BLOCK
2
bas21vd43
8
0
70
0
10
0.0000000
20
0.0000000
0
ENDBLK
0
BLOCK
2
bas21vd44
8
0
70
0
10
0.0000000
20
0.0000000
0
ENDBLK
0
BLOCK
2
bas21vd46
8
0
70
0
10
0.0000000
20
0.0000000
0
ENDBLK
0
BLOCK
2
rc0805mini46
8
0
70
0
10
0.0000000
20
0.0000000
0
ENDBLK
0
BLOCK
2
rc0805mini44
8
0
70
0
10
0.0000000
20
0.0000000
0
ENDBLK
0
BLOCK
2
1__2_33
8
0
70
0
10
0.0000000
20
0.0000000
0
ENDBLK
0
BLOCK
2
1__2_26
8
0
70
0
10
0.0000000
20
0.0000000
0
ENDBLK
0
BLOCK
2
1__2_27
8
0
70
0
10
0.0000000
20
0.0000000
0
ENDBLK
0
BLOCK
2
rc0805mini5_F
8
0
70
0
10
0.0000000
20
0.0000000
0
ENDBLK
0
BLOCK
2
rc0805mini23_F
8
0
70
0
10
0.0000000
20
0.0000000
0
ENDBLK
0
BLOCK
2
rc0805mini9
8
0
70
0
10
0.0000000
20
0.0000000
0
ENDBLK
0
BLOCK
2
rc0805mini50
8
0
70
0
10
0.0000000
20
0.0000000
0
ENDBLK
0
BLOCK
2
rc0805mini48
8
0
70
0
10
0.0000000
20
0.0000000
0
ENDBLK
0
BLOCK
2
rc0805mini31_F
8
0
70
0
10
0.0000000
20
0.0000000
0
ENDBLK
0
BLOCK
2
rc0805mini21_F
8
0
70
0
10
0.0000000
20
0.0000000
0
ENDBLK
0
BLOCK
2
rc0805mini33_F
8
0
70
0
10
0.0000000
20
0.0000000
0
ENDBLK
0
BLOCK
2
mini29
8
0
70
0
10
0.0000000
20
0.0000000
0
ENDBLK
0
BLOCK
2
rc0805mini12
8
0
70
0
10
0.0000000
20
0.0000000
0
ENDBLK
0
BLOCK
2
rc0805mini20
8
0
70
0
10
0.0000000
20
0.0000000
0
ENDBLK
0
BLOCK
2
rc0805mini19
8
0
70
0
10
0.0000000
20
0.0000000
0
ENDBLK
0
BLOCK
2
mini10
8
0
70
0
10
0.0000000
20
0.0000000
0
ENDBLK
0
BLOCK
2
rc0805mini14
8
0
70
0
10
0.0000000
20
0.0000000
0
ENDBLK
0
BLOCK
2
rc0805mini8
8
0
70
0
10
0.0000000
20
0.0000000
0
ENDBLK
0
BLOCK
2
rc0805mini7
8
0
70
0
10
0.0000000
20
0.0000000
0
ENDBLK
0
BLOCK
2
rc0805mini17
8
0
70
0
10
0.0000000
20
0.0000000
0
ENDBLK
0
BLOCK
2
rc0805mini16
8
0
70
0
10
0.0000000
20
0.0000000
0
ENDBLK
0
BLOCK
2
rc0805mini35
8
0
70
0
10
0.0000000
20
0.0000000
0
ENDBLK
0
BLOCK
2
rc0805mini34
8
0
70
0
10
0.0000000
20
0.0000000
0
ENDBLK
0
BLOCK
2
rc0805mini6
8
0
70
0
10
0.0000000
20
0.0000000
0
ENDBLK
0
BLOCK
2
rc0805mini39
8
0
70
0
10
0.0000000
20
0.0000000
0
ENDBLK
0
BLOCK
2
rc0805mini37
8
0
70
0
10
0.0000000
20
0.0000000
0
ENDBLK
0
BLOCK
2
rc0805mini4_F
8
0
70
0
10
0.0000000
20
0.0000000
0
ENDBLK
0
BLOCK
2
rc0805mini30_F
8
0
70
0
10
0.0000000
20
0.0000000
0
ENDBLK
0
BLOCK
2
rc0805mini24_F
8
0
70
0
10
0.0000000
20
0.0000000
0
ENDBLK
0
BLOCK
2
rc0805mini45
8
0
70
0
10
0.0000000
20
0.0000000
0
ENDBLK
0
BLOCK
2
rc0805mini43
8
0
70
0
10
0.0000000
20
0.0000000
0
ENDBLK
0
BLOCK
2
rc0805mini41
8
0
70
0
10
0.0000000
20
0.0000000
0
ENDBLK
0
BLOCK
2
rc0805mini49
8
0
70
0
10
0.0000000
20
0.0000000
0
ENDBLK
0
BLOCK
2
rc0805mini47
8
0
70
0
10
0.0000000
20
0.0000000
0
ENDBLK
0
BLOCK
2
1__2_1
8
0
70
0
10
0.0000000
20
0.0000000
0
ENDBLK
0
BLOCK
2
rc0805mini3_F
8
0
70
0
10
0.0000000
20
0.0000000
0
ENDBLK
0
BLOCK
2
SOT363__1_28_F
8
0
70
0
10
0.0000000
20
0.0000000
0
ENDBLK
0
BLOCK
2
SOT363__1_1_F
8
0
70
0
10
0.0000000
20
0.0000000
0
ENDBLK
0
BLOCK
2
SOT363__1_25_F
8
0
70
0
10
0.0000000
20
0.0000000
0
ENDBLK
0
BLOCK
2
SOT363__1_33_F
8
0
70
0
10
0.0000000
20
0.0000000
0
ENDBLK
0
BLOCK
2
SOT363__1_26_F
8
0
70
0
10
0.0000000
20
0.0000000
0
ENDBLK
0
BLOCK
2
rc0805mini29
8
0
70
0
10
0.0000000
20
0.0000000
0
ENDBLK
0
BLOCK
2
rc0805mini15
8
0
70
0
10
0.0000000
20
0.0000000
0
ENDBLK
0
BLOCK
2
rc0805mini18
8
0
70
0
10
0.0000000
20
0.0000000
0
ENDBLK
0
BLOCK
2
bas21h23_F
8
0
70
0
10
0.0000000
20
0.0000000
0
ENDBLK
0
BLOCK
2
bas21h2_F
8
0
70
0
10
0.0000000
20
0.0000000
0
ENDBLK
0
BLOCK
2
P_SX32Y32D0T55_F
8
0
70
0
10
0.0000000
20
0.0000000
0
ENDBLK
0
BLOCK
2
P_SX32Y32D0T2_F
8
0
70
0
10
0.0000000
20
0.0000000
0
ENDBLK
0
BLOCK
2
P_SX32Y32D0T54_F
8
0
70
0
10
0.0000000
20
0.0000000
0
ENDBLK
0
BLOCK
2
bas21vd36
8
0
70
0
10
0.0000000
20
0.0000000
0
ENDBLK
0
BLOCK
2
bas21vd35
8
0
70
0
10
0.0000000
20
0.0000000
0
ENDBLK
0
BLOCK
2
bas21vd48
8
0
70
0
10
0.0000000
20
0.0000000
0
ENDBLK
0
BLOCK
2
bas21vd47
8
0
70
0
10
0.0000000
20
0.0000000
0
ENDBLK
0
BLOCK
2
bas21vd49
8
0
70
0
10
0.0000000
20
0.0000000
0
ENDBLK
0
BLOCK
2
12_F
8
0
70
0
10
0.0000000
20
0.0000000
0
ENDBLK
0
BLOCK
2
124_F
8
0
70
0
10
0.0000000
20
0.0000000
0
ENDBLK
0
BLOCK
2
131_F
8
0
70
0
10
0.0000000
20
0.0000000
0
ENDBLK
0
BLOCK
2
14_F
8
0
70
0
10
0.0000000
20
0.0000000
0
ENDBLK
0
BLOCK
2
110_F
8
0
70
0
10
0.0000000
20
0.0000000
0
ENDBLK
0
BLOCK
2
bas21vd42
8
0
70
0
10
0.0000000
20
0.0000000
0
ENDBLK
0
BLOCK
2
bas21vd41
8
0
70
0
10
0.0000000
20
0.0000000
0
ENDBLK
0
BLOCK
2
rc0805mini11
8
0
70
0
10
0.0000000
20
0.0000000
0
ENDBLK
0
BLOCK
2
1__2_13
8
0
70
0
10
0.0000000
20
0.0000000
0
ENDBLK
0
BLOCK
2
rc0805mini13
8
0
70
0
10
0.0000000
20
0.0000000
0
ENDBLK
0
BLOCK
2
1__2_25
8
0
70
0
10
0.0000000
20
0.0000000
0
ENDBLK
0
BLOCK
2
rc0805mini57_F
8
0
70
0
10
0.0000000
20
0.0000000
0
ENDBLK
0
BLOCK
2
rc0805mini32_F
8
0
70
0
10
0.0000000
20
0.0000000
0
ENDBLK
0
BLOCK
2
rc0805mini28_F
8
0
70
0
10
0.0000000
20
0.0000000
0
ENDBLK
0
BLOCK
2
def52
8
0
70
0
10
0.0000000
20
0.0000000
0
ENDBLK
0
BLOCK
2
def38
8
0
70
0
10
0.0000000
20
0.0000000
0
ENDBLK
0
BLOCK
2
rc0805mini54_F
8
0
70
0
10
0.0000000
20
0.0000000
0
ENDBLK
0
BLOCK
2
rc0805mini53_F
8
0
70
0
10
0.0000000
20
0.0000000
0
ENDBLK
0
BLOCK
2
rc0805mini51
8
0
70
0
10
0.0000000
20
0.0000000
0
ENDBLK
0
BLOCK
2
rc0805mini27_F
8
0
70
0
10
0.0000000
20
0.0000000
0
ENDBLK
0
BLOCK
2
def2
8
0
70
0
10
0.0000000
20
0.0000000
0
ENDBLK
0
BLOCK
2
def5
8
0
70
0
10
0.0000000
20
0.0000000
0
ENDBLK
0
BLOCK
2
def22
8
0
70
0
10
0.0000000
20
0.0000000
0
ENDBLK
0
BLOCK
2
def53
8
0
70
0
10
0.0000000
20
0.0000000
0
ENDBLK
0
BLOCK
2
def29
8
0
70
0
10
0.0000000
20
0.0000000
0
ENDBLK
0
BLOCK
2
def10
8
0
70
0
10
0.0000000
20
0.0000000
0
ENDBLK
0
BLOCK
2
129_F
8
0
70
0
10
0.0000000
20
0.0000000
0
ENDBLK
0
BLOCK
2
123_F
8
0
70
0
10
0.0000000
20
0.0000000
0
ENDBLK
0
BLOCK
2
15_F
8
0
70
0
10
0.0000000
20
0.0000000
0
ENDBLK
0
BLOCK
2
157_F
8
0
70
0
10
0.0000000
20
0.0000000
0
ENDBLK
0
BLOCK
2
VIRTUAL
8
0
70
0
10
0.0000000
20
0.0000000
0
ENDBLK
0
BLOCK
2
E6788_11U16
8
0
70
0
10
0.0000000
20
0.0000000
0
ENDBLK
0
BLOCK
2
E6788_11U14
8
0
70
0
10
0.0000000
20
0.0000000
0
ENDBLK
0
BLOCK
2
E6788_11U15
8
0
70
0
10
0.0000000
20
0.0000000
0
ENDBLK
0
BLOCK
2
E6788_11U19
8
0
70
0
10
0.0000000
20
0.0000000
0
ENDBLK
0
BLOCK
2
E6788_11U12
8
0
70
0
10
0.0000000
20
0.0000000
0
ENDBLK
0
BLOCK
2
E6788_11U20
8
0
70
0
10
0.0000000
20
0.0000000
0
ENDBLK
0
BLOCK
2
E6788_11U8
8
0
70
0
10
0.0000000
20
0.0000000
0
ENDBLK
0
BLOCK
2
E6788_11U18
8
0
70
0
10
0.0000000
20
0.0000000
0
ENDBLK
0
BLOCK
2
E6788_11U17
8
0
70
0
10
0.0000000
20
0.0000000
0
ENDBLK
0
BLOCK
2
E6788_11U7
8
0
70
0
10
0.0000000
20
0.0000000
0
ENDBLK
0
BLOCK
2
E6788_11U32
8
0
70
0
10
0.0000000
20
0.0000000
0
ENDBLK
0
BLOCK
2
bas21vd51
8
0
70
0
10
0.0000000
20
0.0000000
0
ENDBLK
0
BLOCK
2
bas21vd50
8
0
70
0
10
0.0000000
20
0.0000000
0
ENDBLK
0
BLOCK
2
bas21vd9
8
0
70
0
10
0.0000000
20
0.0000000
0
ENDBLK
0
BLOCK
2
Circle_Line
8
0
70
0
10
0.0000000
20
0.0000000
0
CIRCLE
8
Drill_Layer
6
CONTINUOUS
10
0.0000000
20
0.0000000
40
0.5000000
0
LINE
8
Drill_Layer
6
CONTINUOUS
10
0.0000000
20
0.5000000
11
0.0000000
21
0.0000000
0
ENDBLK
0
BLOCK
2
RC0805_MINI_2413
8
0
70
0
10
0.0000000
20
0.0000000
0
ENDBLK
0
BLOCK
2
RC0805_MINI_2421
8
0
70
0
10
0.0000000
20
0.0000000
0
ENDBLK
0
BLOCK
2
RC0805_MINI_2428
8
0
70
0
10
0.0000000
20
0.0000000
0
ENDBLK
0
BLOCK
2
SOT457_2435
8
0
70
0
10
0.0000000
20
0.0000000
0
ENDBLK
0
BLOCK
2
SOT457_2451
8
0
70
0
10
0.0000000
20
0.0000000
0
ENDBLK
0
BLOCK
2
RC0805_MINI_2465
8
0
70
0
10
0.0000000
20
0.0000000
0
ENDBLK
0
BLOCK
2
RC0805_MINI_2473
8
0
70
0
10
0.0000000
20
0.0000000
0
ENDBLK
0
BLOCK
2
RC0805_MINI_2482
8
0
70
0
10
0.0000000
20
0.0000000
0
ENDBLK
0
BLOCK
2
RC0805_MINI_2489
8
0
70
0
10
0.0000000
20
0.0000000
0
ENDBLK
0
BLOCK
2
RC0805_MINI_2496
8
0
70
0
10
0.0000000
20
0.0000000
0
ENDBLK
0
BLOCK
2
TRANS_PIN_2503
8
0
70
0
10
0.0000000
20
0.0000000
0
ENDBLK
0
BLOCK
2
SOT457_2508
8
0
70
0
10
0.0000000
20
0.0000000
0
ENDBLK
0
BLOCK
2
RC0805_MINI_2522
8
0
70
0
10
0.0000000
20
0.0000000
0
ENDBLK
0
BLOCK
2
TRANS_PIN_2529
8
0
70
0
10
0.0000000
20
0.0000000
0
ENDBLK
0
BLOCK
2
TRANS_PIN_2534
8
0
70
0
10
0.0000000
20
0.0000000
0
ENDBLK
0
BLOCK
2
TRANS_PIN_2539
8
0
70
0
10
0.0000000
20
0.0000000
0
ENDBLK
0
BLOCK
2
RC0805_MINI_2544
8
0
70
0
10
0.0000000
20
0.0000000
0
ENDBLK
0
BLOCK
2
RC0805_MINI_2551
8
0
70
0
10
0.0000000
20
0.0000000
0
ENDBLK
0
BLOCK
2
RC0805_MINI_2558
8
0
70
0
10
0.0000000
20
0.0000000
0
ENDBLK
0
BLOCK
2
RC0805_MINI_2565
8
0
70
0
10
0.0000000
20
0.0000000
0
ENDBLK
0
BLOCK
2
RC0805_MINI_2572
8
0
70
0
10
0.0000000
20
0.0000000
0
ENDBLK
0
BLOCK
2
RC0805_MINI_2579
8
0
70
0
10
0.0000000
20
0.0000000
0
ENDBLK
0
BLOCK
2
RC0805_MINI_2586
8
0
70
0
10
0.0000000
20
0.0000000
0
ENDBLK
0
BLOCK
2
RC0805_MINI_2596
8
0
70
0
10
0.0000000
20
0.0000000
0
ENDBLK
0
BLOCK
2
RC0805_MINI_2603
8
0
70
0
10
0.0000000
20
0.0000000
0
ENDBLK
0
BLOCK
2
RC0805_MINI_2611
8
0
70
0
10
0.0000000
20
0.0000000
0
ENDBLK
0
BLOCK
2
RC0805_MINI_2618
8
0
70
0
10
0.0000000
20
0.0000000
0
ENDBLK
0
BLOCK
2
RC0805_MINI_2626
8
0
70
0
10
0.0000000
20
0.0000000
0
ENDBLK
0
BLOCK
2
RC0805_MINI_2634
8
0
70
0
10
0.0000000
20
0.0000000
0
ENDBLK
0
BLOCK
2
RC0805_MINI_2641
8
0
70
0
10
0.0000000
20
0.0000000
0
ENDBLK
0
BLOCK
2
RC0805_MINI_2648
8
0
70
0
10
0.0000000
20
0.0000000
0
ENDBLK
0
BLOCK
2
RC0805_MINI_2655
8
0
70
0
10
0.0000000
20
0.0000000
0
ENDBLK
0
BLOCK
2
RC0805_MINI_2662
8
0
70
0
10
0.0000000
20
0.0000000
0
ENDBLK
0
BLOCK
2
RC0805_MINI_2669
8
0
70
0
10
0.0000000
20
0.0000000
0
ENDBLK
0
BLOCK
2
RC0805_MINI_2676
8
0
70
0
10
0.0000000
20
0.0000000
0
ENDBLK
0
BLOCK
2
RC0805_MINI_2683
8
0
70
0
10
0.0000000
20
0.0000000
0
ENDBLK
0
BLOCK
2
RC0805_MINI_2690
8
0
70
0
10
0.0000000
20
0.0000000
0
ENDBLK
0
BLOCK
2
RC0805_MINI_2697
8
0
70
0
10
0.0000000
20
0.0000000
0
ENDBLK
0
BLOCK
2
RC0805_MINI_2704
8
0
70
0
10
0.0000000
20
0.0000000
0
ENDBLK
0
BLOCK
2
RC0805_MINI_2711
8
0
70
0
10
0.0000000
20
0.0000000
0
ENDBLK
0
BLOCK
2
RC0805_MINI_2718
8
0
70
0
10
0.0000000
20
0.0000000
0
ENDBLK
0
BLOCK
2
RC0805_MINI_2725
8
0
70
0
10
0.0000000
20
0.0000000
0
ENDBLK
0
BLOCK
2
TRANS_PIN_2732
8
0
70
0
10
0.0000000
20
0.0000000
0
ENDBLK
0
BLOCK
2
RC0805_MINI_2737
8
0
70
0
10
0.0000000
20
0.0000000
0
ENDBLK
0
BLOCK
2
SOT363_2744
8
0
70
0
10
0.0000000
20
0.0000000
0
ENDBLK
0
BLOCK
2
RC0805_MINI_2754
8
0
70
0
10
0.0000000
20
0.0000000
0
ENDBLK
0
BLOCK
2
RC0805_MINI_2761
8
0
70
0
10
0.0000000
20
0.0000000
0
ENDBLK
0
BLOCK
2
RC0805_MINI_2768
8
0
70
0
10
0.0000000
20
0.0000000
0
ENDBLK
0
BLOCK
2
RC0805_MINI_2775
8
0
70
0
10
0.0000000
20
0.0000000
0
ENDBLK
0
BLOCK
2
RC0805_MINI_2782
8
0
70
0
10
0.0000000
20
0.0000000
0
ENDBLK
0
BLOCK
2
RC0805_MINI_2789
8
0
70
0
10
0.0000000
20
0.0000000
0
ENDBLK
0
BLOCK
2
RC0805_MINI_2796
8
0
70
0
10
0.0000000
20
0.0000000
0
ENDBLK
0
BLOCK
2
RC0805_MINI_2803
8
0
70
0
10
0.0000000
20
0.0000000
0
ENDBLK
0
BLOCK
2
BAS21H_2811
8
0
70
0
10
0.0000000
20
0.0000000
0
ENDBLK
0
BLOCK
2
SOT_23_EBC__2823
8
0
70
0
10
0.0000000
20
0.0000000
0
ENDBLK
0
BLOCK
2
SOT457_2836
8
0
70
0
10
0.0000000
20
0.0000000
0
ENDBLK
0
BLOCK
2
RC0805_MINI_2850
8
0
70
0
10
0.0000000
20
0.0000000
0
ENDBLK
0
BLOCK
2
SOT457_2857
8
0
70
0
10
0.0000000
20
0.0000000
0
ENDBLK
0
BLOCK
2
RC0805_MINI_2871
8
0
70
0
10
0.0000000
20
0.0000000
0
ENDBLK
0
BLOCK
2
SOT353_SC70_MO_203_SC_88_2878
8
0
70
0
10
0.0000000
20
0.0000000
0
ENDBLK
0
BLOCK
2
SOT457_2894
8
0
70
0
10
0.0000000
20
0.0000000
0
ENDBLK
0
BLOCK
2
RC0805_MINI_2908
8
0
70
0
10
0.0000000
20
0.0000000
0
ENDBLK
0
BLOCK
2
RC0805_MINI_2915
8
0
70
0
10
0.0000000
20
0.0000000
0
ENDBLK
0
BLOCK
2
RC0805_MINI_2922
8
0
70
0
10
0.0000000
20
0.0000000
0
ENDBLK
0
BLOCK
2
TRANS_PIN_2929
8
0
70
0
10
0.0000000
20
0.0000000
0
ENDBLK
0
BLOCK
2
RC0805_MINI_2934
8
0
70
0
10
0.0000000
20
0.0000000
0
ENDBLK
0
BLOCK
2
TRANS_PIN_2942
8
0
70
0
10
0.0000000
20
0.0000000
0
ENDBLK
0
BLOCK
2
RC0805_MINI_2947
8
0
70
0
10
0.0000000
20
0.0000000
0
ENDBLK
0
BLOCK
2
RC0805_MINI_2954
8
0
70
0
10
0.0000000
20
0.0000000
0
ENDBLK
0
BLOCK
2
RC0805_MINI_2961
8
0
70
0
10
0.0000000
20
0.0000000
0
ENDBLK
0
BLOCK
2
RC0805_MINI_2968
8
0
70
0
10
0.0000000
20
0.0000000
0
ENDBLK
0
BLOCK
2
RC0805_MINI_2975
8
0
70
0
10
0.0000000
20
0.0000000
0
ENDBLK
0
BLOCK
2
RC0805_MINI_2983
8
0
70
0
10
0.0000000
20
0.0000000
0
ENDBLK
0
BLOCK
2
RC0805_MINI_2990
8
0
70
0
10
0.0000000
20
0.0000000
0
ENDBLK
0
BLOCK
2
RC0805_MINI_2997
8
0
70
0
10
0.0000000
20
0.0000000
0
ENDBLK
0
BLOCK
2
RC0805_MINI_3004
8
0
70
0
10
0.0000000
20
0.0000000
0
ENDBLK
0
BLOCK
2
RC0805_MINI_3011
8
0
70
0
10
0.0000000
20
0.0000000
0
ENDBLK
0
BLOCK
2
RC0805_MINI_3018
8
0
70
0
10
0.0000000
20
0.0000000
0
ENDBLK
0
BLOCK
2
PW10_2_M_3025
8
0
70
0
10
0.0000000
20
0.0000000
0
ENDBLK
0
BLOCK
2
RC0805_MINI_3041
8
0
70
0
10
0.0000000
20
0.0000000
0
ENDBLK
0
BLOCK
2
RC0805_MINI_3049
8
0
70
0
10
0.0000000
20
0.0000000
0
ENDBLK
0
BLOCK
2
RC0805_MINI_3056
8
0
70
0
10
0.0000000
20
0.0000000
0
ENDBLK
0
BLOCK
2
RC0805_MINI_3063
8
0
70
0
10
0.0000000
20
0.0000000
0
ENDBLK
0
BLOCK
2
TRANS_PIN_3070
8
0
70
0
10
0.0000000
20
0.0000000
0
ENDBLK
0
BLOCK
2
RC0805_MINI_3075
8
0
70
0
10
0.0000000
20
0.0000000
0
ENDBLK
0
BLOCK
2
RC0805_MINI_3082
8
0
70
0
10
0.0000000
20
0.0000000
0
ENDBLK
0
BLOCK
2
RC0805_MINI_3089
8
0
70
0
10
0.0000000
20
0.0000000
0
ENDBLK
0
BLOCK
2
RC0805_MINI_3096
8
0
70
0
10
0.0000000
20
0.0000000
0
ENDBLK
0
BLOCK
2
RC0805_MINI_3103
8
0
70
0
10
0.0000000
20
0.0000000
0
ENDBLK
0
BLOCK
2
RC0805_MINI_3110
8
0
70
0
10
0.0000000
20
0.0000000
0
ENDBLK
0
BLOCK
2
RC0805_MINI_3119
8
0
70
0
10
0.0000000
20
0.0000000
0
ENDBLK
0
BLOCK
2
RC0805_MINI_3126
8
0
70
0
10
0.0000000
20
0.0000000
0
ENDBLK
0
BLOCK
2
RC0805_MINI_3133
8
0
70
0
10
0.0000000
20
0.0000000
0
ENDBLK
0
BLOCK
2
RC0805_MINI_3140
8
0
70
0
10
0.0000000
20
0.0000000
0
ENDBLK
0
BLOCK
2
PW10_6_M_3147
8
0
70
0
10
0.0000000
20
0.0000000
0
ENDBLK
0
BLOCK
2
SOT353_SC70_MO_203_SC_88_3167
8
0
70
0
10
0.0000000
20
0.0000000
0
ENDBLK
0
BLOCK
2
_R6354_3183
8
0
70
0
10
0.0000000
20
0.0000000
0
ENDBLK
0
BLOCK
2
SOT457_3208
8
0
70
0
10
0.0000000
20
0.0000000
0
ENDBLK
0
BLOCK
2
R32
8
0
70
0
10
0.0000000
20
0.0000000
0
INSERT
8
0
2
RC0805_MINI_2413
10
0.0000000
20
0.0000000
41
1.0000000
42
1.0000000
43
1.0000000
50
0.0000000
0
ENDBLK
0
BLOCK
2
C12
8
0
70
0
10
0.0000000
20
0.0000000
0
INSERT
8
0
2
RC0805_MINI_2421
10
0.0000000
20
0.0000000
41
1.0000000
42
1.0000000
43
1.0000000
50
0.0000000
0
ENDBLK
0
BLOCK
2
R30
8
0
70
0
10
0.0000000
20
0.0000000
0
INSERT
8
0
2
RC0805_MINI_2428
10
0.0000000
20
0.0000000
41
1.0000000
42
1.0000000
43
1.0000000
50
0.0000000
0
ENDBLK
0
BLOCK
2
VD1
8
0
70
0
10
0.0000000
20
0.0000000
0
INSERT
8
0
2
SOT457_2435
10
0.0000000
20
0.0000000
41
1.0000000
42
1.0000000
43
1.0000000
50
0.0000000
0
ENDBLK
0
BLOCK
2
VD3
8
0
70
0
10
0.0000000
20
0.0000000
0
INSERT
8
0
2
SOT457_2451
10
0.0000000
20
0.0000000
41
1.0000000
42
1.0000000
43
1.0000000
50
0.0000000
0
ENDBLK
0
BLOCK
2
C15
8
0
70
0
10
0.0000000
20
0.0000000
0
INSERT
8
0
2
RC0805_MINI_2465
10
0.0000000
20
0.0000000
41
1.0000000
42
1.0000000
43
1.0000000
50
0.0000000
0
ENDBLK
0
BLOCK
2
C38
8
0
70
0
10
0.0000000
20
0.0000000
0
INSERT
8
0
2
RC0805_MINI_2473
10
0.0000000
20
0.0000000
41
1.0000000
42
1.0000000
43
1.0000000
50
0.0000000
0
ENDBLK
0
BLOCK
2
C14
8
0
70
0
10
0.0000000
20
0.0000000
0
INSERT
8
0
2
RC0805_MINI_2482
10
0.0000000
20
0.0000000
41
1.0000000
42
1.0000000
43
1.0000000
50
0.0000000
0
ENDBLK
0
BLOCK
2
C36
8
0
70
0
10
0.0000000
20
0.0000000
0
INSERT
8
0
2
RC0805_MINI_2489
10
0.0000000
20
0.0000000
41
1.0000000
42
1.0000000
43
1.0000000
50
0.0000000
0
ENDBLK
0
BLOCK
2
R33
8
0
70
0
10
0.0000000
20
0.0000000
0
INSERT
8
0
2
RC0805_MINI_2496
10
0.0000000
20
0.0000000
41
1.0000000
42
1.0000000
43
1.0000000
50
0.0000000
0
ENDBLK
0
BLOCK
2
U7
8
0
70
0
10
0.0000000
20
0.0000000
0
INSERT
8
0
2
TRANS_PIN_2503
10
0.0000000
20
0.0000000
41
1.0000000
42
1.0000000
43
1.0000000
50
0.0000000
0
INSERT
8
0
2
1__2_6
10
4.3208661
20
2.8031496
41
1.0000000
42
1.0000000
43
1.0000000
50
270.0000000
0
ENDBLK
0
BLOCK
2
VD5
8
0
70
0
10
0.0000000
20
0.0000000
0
INSERT
8
0
2
SOT457_2508
10
0.0000000
20
0.0000000
41
1.0000000
42
1.0000000
43
1.0000000
50
0.0000000
0
ENDBLK
0
BLOCK
2
C17
8
0
70
0
10
0.0000000
20
0.0000000
0
INSERT
8
0
2
RC0805_MINI_2522
10
0.0000000
20
0.0000000
41
1.0000000
42
1.0000000
43
1.0000000
50
0.0000000
0
ENDBLK
0
BLOCK
2
U8
8
0
70
0
10
0.0000000
20
0.0000000
0
INSERT
8
0
2
TRANS_PIN_2529
10
0.0000000
20
0.0000000
41
1.0000000
42
1.0000000
43
1.0000000
50
0.0000000
0
INSERT
8
0
2
1__2_33
10
4.6889764
20
2.9015748
41
1.0000000
42
1.0000000
43
1.0000000
50
195.0000000
0
ENDBLK
0
BLOCK
2
U5
8
0
70
0
10
0.0000000
20
0.0000000
0
INSERT
8
0
2
TRANS_PIN_2534
10
0.0000000
20
0.0000000
41
1.0000000
42
1.0000000
43
1.0000000
50
0.0000000
0
INSERT
8
0
2
1__2_26
10
4.7106299
20
2.8425197
41
1.0000000
42
1.0000000
43
1.0000000
50
195.0000000
0
ENDBLK
0
BLOCK
2
U4
8
0
70
0
10
0.0000000
20
0.0000000
0
INSERT
8
0
2
TRANS_PIN_2539
10
0.0000000
20
0.0000000
41
1.0000000
42
1.0000000
43
1.0000000
50
0.0000000
0
INSERT
8
0
2
1__2_27
10
4.6200787
20
2.9429134
41
1.0000000
42
1.0000000
43
1.0000000
50
195.0000000
0
ENDBLK
0
BLOCK
2
R34
8
0
70
0
10
0.0000000
20
0.0000000
0
INSERT
8
0
2
RC0805_MINI_2544
10
0.0000000
20
0.0000000
41
1.0000000
42
1.0000000
43
1.0000000
50
0.0000000
0
ENDBLK
0
BLOCK
2
R28
8
0
70
0
10
0.0000000
20
0.0000000
0
INSERT
8
0
2
RC0805_MINI_2551
10
0.0000000
20
0.0000000
41
1.0000000
42
1.0000000
43
1.0000000
50
0.0000000
0
ENDBLK
0
BLOCK
2
C20
8
0
70
0
10
0.0000000
20
0.0000000
0
INSERT
8
0
2
RC0805_MINI_2558
10
0.0000000
20
0.0000000
41
1.0000000
42
1.0000000
43
1.0000000
50
0.0000000
0
ENDBLK
0
BLOCK
2
C19
8
0
70
0
10
0.0000000
20
0.0000000
0
INSERT
8
0
2
RC0805_MINI_2565
10
0.0000000
20
0.0000000
41
1.0000000
42
1.0000000
43
1.0000000
50
0.0000000
0
ENDBLK
0
BLOCK
2
R26
8
0
70
0
10
0.0000000
20
0.0000000
0
INSERT
8
0
2
RC0805_MINI_2572
10
0.0000000
20
0.0000000
41
1.0000000
42
1.0000000
43
1.0000000
50
0.0000000
0
ENDBLK
0
BLOCK
2
R25
8
0
70
0
10
0.0000000
20
0.0000000
0
INSERT
8
0
2
RC0805_MINI_2579
10
0.0000000
20
0.0000000
41
1.0000000
42
1.0000000
43
1.0000000
50
0.0000000
0
ENDBLK
0
BLOCK
2
R22
8
0
70
0
10
0.0000000
20
0.0000000
0
INSERT
8
0
2
RC0805_MINI_2586
10
0.0000000
20
0.0000000
41
1.0000000
42
1.0000000
43
1.0000000
50
0.0000000
0
ENDBLK
0
BLOCK
2
C10
8
0
70
0
10
0.0000000
20
0.0000000
0
INSERT
8
0
2
RC0805_MINI_2596
10
0.0000000
20
0.0000000
41
1.0000000
42
1.0000000
43
1.0000000
50
0.0000000
0
ENDBLK
0
BLOCK
2
C9
8
0
70
0
10
0.0000000
20
0.0000000
0
INSERT
8
0
2
RC0805_MINI_2603
10
0.0000000
20
0.0000000
41
1.0000000
42
1.0000000
43
1.0000000
50
0.0000000
0
ENDBLK
0
BLOCK
2
C3
8
0
70
0
10
0.0000000
20
0.0000000
0
INSERT
8
0
2
RC0805_MINI_2611
10
0.0000000
20
0.0000000
41
1.0000000
42
1.0000000
43
1.0000000
50
0.0000000
0
ENDBLK
0
BLOCK
2
C2
8
0
70
0
10
0.0000000
20
0.0000000
0
INSERT
8
0
2
RC0805_MINI_2618
10
0.0000000
20
0.0000000
41
1.0000000
42
1.0000000
43
1.0000000
50
0.0000000
0
ENDBLK
0
BLOCK
2
C6
8
0
70
0
10
0.0000000
20
0.0000000
0
INSERT
8
0
2
RC0805_MINI_2626
10
0.0000000
20
0.0000000
41
1.0000000
42
1.0000000
43
1.0000000
50
0.0000000
0
ENDBLK
0
BLOCK
2
C22
8
0
70
0
10
0.0000000
20
0.0000000
0
INSERT
8
0
2
RC0805_MINI_2634
10
0.0000000
20
0.0000000
41
1.0000000
42
1.0000000
43
1.0000000
50
0.0000000
0
ENDBLK
0
BLOCK
2
C21
8
0
70
0
10
0.0000000
20
0.0000000
0
INSERT
8
0
2
RC0805_MINI_2641
10
0.0000000
20
0.0000000
41
1.0000000
42
1.0000000
43
1.0000000
50
0.0000000
0
ENDBLK
0
BLOCK
2
R12
8
0
70
0
10
0.0000000
20
0.0000000
0
INSERT
8
0
2
RC0805_MINI_2648
10
0.0000000
20
0.0000000
41
1.0000000
42
1.0000000
43
1.0000000
50
0.0000000
0
ENDBLK
0
BLOCK
2
C24
8
0
70
0
10
0.0000000
20
0.0000000
0
INSERT
8
0
2
RC0805_MINI_2655
10
0.0000000
20
0.0000000
41
1.0000000
42
1.0000000
43
1.0000000
50
0.0000000
0
ENDBLK
0
BLOCK
2
R14
8
0
70
0
10
0.0000000
20
0.0000000
0
INSERT
8
0
2
RC0805_MINI_2662
10
0.0000000
20
0.0000000
41
1.0000000
42
1.0000000
43
1.0000000
50
0.0000000
0
ENDBLK
0
BLOCK
2
R15
8
0
70
0
10
0.0000000
20
0.0000000
0
INSERT
8
0
2
RC0805_MINI_2669
10
0.0000000
20
0.0000000
41
1.0000000
42
1.0000000
43
1.0000000
50
0.0000000
0
ENDBLK
0
BLOCK
2
R23
8
0
70
0
10
0.0000000
20
0.0000000
0
INSERT
8
0
2
RC0805_MINI_2676
10
0.0000000
20
0.0000000
41
1.0000000
42
1.0000000
43
1.0000000
50
0.0000000
0
ENDBLK
0
BLOCK
2
R27
8
0
70
0
10
0.0000000
20
0.0000000
0
INSERT
8
0
2
RC0805_MINI_2683
10
0.0000000
20
0.0000000
41
1.0000000
42
1.0000000
43
1.0000000
50
0.0000000
0
ENDBLK
0
BLOCK
2
C27
8
0
70
0
10
0.0000000
20
0.0000000
0
INSERT
8
0
2
RC0805_MINI_2690
10
0.0000000
20
0.0000000
41
1.0000000
42
1.0000000
43
1.0000000
50
0.0000000
0
ENDBLK
0
BLOCK
2
R29
8
0
70
0
10
0.0000000
20
0.0000000
0
INSERT
8
0
2
RC0805_MINI_2697
10
0.0000000
20
0.0000000
41
1.0000000
42
1.0000000
43
1.0000000
50
0.0000000
0
ENDBLK
0
BLOCK
2
C26
8
0
70
0
10
0.0000000
20
0.0000000
0
INSERT
8
0
2
RC0805_MINI_2704
10
0.0000000
20
0.0000000
41
1.0000000
42
1.0000000
43
1.0000000
50
0.0000000
0
ENDBLK
0
BLOCK
2
R17
8
0
70
0
10
0.0000000
20
0.0000000
0
INSERT
8
0
2
RC0805_MINI_2711
10
0.0000000
20
0.0000000
41
1.0000000
42
1.0000000
43
1.0000000
50
0.0000000
0
ENDBLK
0
BLOCK
2
C29
8
0
70
0
10
0.0000000
20
0.0000000
0
INSERT
8
0
2
RC0805_MINI_2718
10
0.0000000
20
0.0000000
41
1.0000000
42
1.0000000
43
1.0000000
50
0.0000000
0
ENDBLK
0
BLOCK
2
C34
8
0
70
0
10
0.0000000
20
0.0000000
0
INSERT
8
0
2
RC0805_MINI_2725
10
0.0000000
20
0.0000000
41
1.0000000
42
1.0000000
43
1.0000000
50
0.0000000
0
ENDBLK
0
BLOCK
2
U6
8
0
70
0
10
0.0000000
20
0.0000000
0
INSERT
8
0
2
TRANS_PIN_2732
10
0.0000000
20
0.0000000
41
1.0000000
42
1.0000000
43
1.0000000
50
0.0000000
0
INSERT
8
0
2
1__2_1
10
4.8799213
20
2.9527559
41
1.0000000
42
1.0000000
43
1.0000000
50
15.0000000
0
ENDBLK
0
BLOCK
2
L1
8
0
70
0
10
0.0000000
20
0.0000000
0
INSERT
8
0
2
RC0805_MINI_2737
10
0.0000000
20
0.0000000
41
1.0000000
42
1.0000000
43
1.0000000
50
0.0000000
0
ENDBLK
0
BLOCK
2
VT1
8
0
70
0
10
0.0000000
20
0.0000000
0
INSERT
8
0
2
SOT363_2744
10
0.0000000
20
0.0000000
41
1.0000000
42
1.0000000
43
1.0000000
50
0.0000000
0
ENDBLK
0
BLOCK
2
R19
8
0
70
0
10
0.0000000
20
0.0000000
0
INSERT
8
0
2
RC0805_MINI_2754
10
0.0000000
20
0.0000000
41
1.0000000
42
1.0000000
43
1.0000000
50
0.0000000
0
ENDBLK
0
BLOCK
2
R20
8
0
70
0
10
0.0000000
20
0.0000000
0
INSERT
8
0
2
RC0805_MINI_2761
10
0.0000000
20
0.0000000
41
1.0000000
42
1.0000000
43
1.0000000
50
0.0000000
0
ENDBLK
0
BLOCK
2
R2
8
0
70
0
10
0.0000000
20
0.0000000
0
INSERT
8
0
2
RC0805_MINI_2768
10
0.0000000
20
0.0000000
41
1.0000000
42
1.0000000
43
1.0000000
50
0.0000000
0
ENDBLK
0
BLOCK
2
C1
8
0
70
0
10
0.0000000
20
0.0000000
0
INSERT
8
0
2
RC0805_MINI_2775
10
0.0000000
20
0.0000000
41
1.0000000
42
1.0000000
43
1.0000000
50
0.0000000
0
ENDBLK
0
BLOCK
2
R1
8
0
70
0
10
0.0000000
20
0.0000000
0
INSERT
8
0
2
RC0805_MINI_2782
10
0.0000000
20
0.0000000
41
1.0000000
42
1.0000000
43
1.0000000
50
0.0000000
0
ENDBLK
0
BLOCK
2
C4
8
0
70
0
10
0.0000000
20
0.0000000
0
INSERT
8
0
2
RC0805_MINI_2789
10
0.0000000
20
0.0000000
41
1.0000000
42
1.0000000
43
1.0000000
50
0.0000000
0
ENDBLK
0
BLOCK
2
R5
8
0
70
0
10
0.0000000
20
0.0000000
0
INSERT
8
0
2
RC0805_MINI_2796
10
0.0000000
20
0.0000000
41
1.0000000
42
1.0000000
43
1.0000000
50
0.0000000
0
ENDBLK
0
BLOCK
2
C7
8
0
70
0
10
0.0000000
20
0.0000000
0
INSERT
8
0
2
RC0805_MINI_2803
10
0.0000000
20
0.0000000
41
1.0000000
42
1.0000000
43
1.0000000
50
0.0000000
0
ENDBLK
0
BLOCK
2
VD8
8
0
70
0
10
0.0000000
20
0.0000000
0
INSERT
8
0
2
BAS21H_2811
10
0.0000000
20
0.0000000
41
1.0000000
42
1.0000000
43
1.0000000
50
0.0000000
0
ENDBLK
0
BLOCK
2
VT3
8
0
70
0
10
0.0000000
20
0.0000000
0
INSERT
8
0
2
SOT_23_EBC__2823
10
0.0000000
20
0.0000000
41
1.0000000
42
1.0000000
43
1.0000000
50
0.0000000
0
ENDBLK
0
BLOCK
2
VD2
8
0
70
0
10
0.0000000
20
0.0000000
0
INSERT
8
0
2
SOT457_2836
10
0.0000000
20
0.0000000
41
1.0000000
42
1.0000000
43
1.0000000
50
0.0000000
0
ENDBLK
0
BLOCK
2
C33
8
0
70
0
10
0.0000000
20
0.0000000
0
INSERT
8
0
2
RC0805_MINI_2850
10
0.0000000
20
0.0000000
41
1.0000000
42
1.0000000
43
1.0000000
50
0.0000000
0
ENDBLK
0
BLOCK
2
VD6
8
0
70
0
10
0.0000000
20
0.0000000
0
INSERT
8
0
2
SOT457_2857
10
0.0000000
20
0.0000000
41
1.0000000
42
1.0000000
43
1.0000000
50
0.0000000
0
ENDBLK
0
BLOCK
2
C18
8
0
70
0
10
0.0000000
20
0.0000000
0
INSERT
8
0
2
RC0805_MINI_2871
10
0.0000000
20
0.0000000
41
1.0000000
42
1.0000000
43
1.0000000
50
0.0000000
0
ENDBLK
0
BLOCK
2
DA2
8
0
70
0
10
0.0000000
20
0.0000000
0
INSERT
8
0
2
SOT353_SC70_MO_203_SC_88_2878
10
0.0000000
20
0.0000000
41
1.0000000
42
1.0000000
43
1.0000000
50
0.0000000
0
ENDBLK
0
BLOCK
2
VD4
8
0
70
0
10
0.0000000
20
0.0000000
0
INSERT
8
0
2
SOT457_2894
10
0.0000000
20
0.0000000
41
1.0000000
42
1.0000000
43
1.0000000
50
0.0000000
0
ENDBLK
0
BLOCK
2
C16
8
0
70
0
10
0.0000000
20
0.0000000
0
INSERT
8
0
2
RC0805_MINI_2908
10
0.0000000
20
0.0000000
41
1.0000000
42
1.0000000
43
1.0000000
50
0.0000000
0
ENDBLK
0
BLOCK
2
C13
8
0
70
0
10
0.0000000
20
0.0000000
0
INSERT
8
0
2
RC0805_MINI_2915
10
0.0000000
20
0.0000000
41
1.0000000
42
1.0000000
43
1.0000000
50
0.0000000
0
ENDBLK
0
BLOCK
2
C11
8
0
70
0
10
0.0000000
20
0.0000000
0
INSERT
8
0
2
RC0805_MINI_2922
10
0.0000000
20
0.0000000
41
1.0000000
42
1.0000000
43
1.0000000
50
0.0000000
0
ENDBLK
0
BLOCK
2
U3
8
0
70
0
10
0.0000000
20
0.0000000
0
INSERT
8
0
2
TRANS_PIN_2929
10
0.0000000
20
0.0000000
41
1.0000000
42
1.0000000
43
1.0000000
50
0.0000000
0
INSERT
8
0
2
1__2_13
10
4.5098425
20
2.8484252
41
1.0000000
42
1.0000000
43
1.0000000
50
15.0000000
0
ENDBLK
0
BLOCK
2
R21
8
0
70
0
10
0.0000000
20
0.0000000
0
INSERT
8
0
2
RC0805_MINI_2934
10
0.0000000
20
0.0000000
41
1.0000000
42
1.0000000
43
1.0000000
50
0.0000000
0
ENDBLK
0
BLOCK
2
U2
8
0
70
0
10
0.0000000
20
0.0000000
0
INSERT
8
0
2
TRANS_PIN_2942
10
0.0000000
20
0.0000000
41
1.0000000
42
1.0000000
43
1.0000000
50
0.0000000
0
INSERT
8
0
2
1__2_25
10
4.8011811
20
3.0610236
41
1.0000000
42
1.0000000
43
1.0000000
50
195.0000000
0
ENDBLK
0
BLOCK
2
R3
8
0
70
0
10
0.0000000
20
0.0000000
0
INSERT
8
0
2
RC0805_MINI_2947
10
0.0000000
20
0.0000000
41
1.0000000
42
1.0000000
43
1.0000000
50
0.0000000
0
ENDBLK
0
BLOCK
2
C35
8
0
70
0
10
0.0000000
20
0.0000000
0
INSERT
8
0
2
RC0805_MINI_2954
10
0.0000000
20
0.0000000
41
1.0000000
42
1.0000000
43
1.0000000
50
0.0000000
0
ENDBLK
0
BLOCK
2
R10
8
0
70
0
10
0.0000000
20
0.0000000
0
INSERT
8
0
2
RC0805_MINI_2961
10
0.0000000
20
0.0000000
41
1.0000000
42
1.0000000
43
1.0000000
50
0.0000000
0
ENDBLK
0
BLOCK
2
L4
8
0
70
0
10
0.0000000
20
0.0000000
0
INSERT
8
0
2
RC0805_MINI_2968
10
0.0000000
20
0.0000000
41
1.0000000
42
1.0000000
43
1.0000000
50
0.0000000
0
ENDBLK
0
BLOCK
2
R24
8
0
70
0
10
0.0000000
20
0.0000000
0
INSERT
8
0
2
RC0805_MINI_2975
10
0.0000000
20
0.0000000
41
1.0000000
42
1.0000000
43
1.0000000
50
0.0000000
0
ENDBLK
0
BLOCK
2
R4
8
0
70
0
10
0.0000000
20
0.0000000
0
INSERT
8
0
2
RC0805_MINI_2983
10
0.0000000
20
0.0000000
41
1.0000000
42
1.0000000
43
1.0000000
50
0.0000000
0
ENDBLK
0
BLOCK
2
C5
8
0
70
0
10
0.0000000
20
0.0000000
0
INSERT
8
0
2
RC0805_MINI_2990
10
0.0000000
20
0.0000000
41
1.0000000
42
1.0000000
43
1.0000000
50
0.0000000
0
ENDBLK
0
BLOCK
2
L3
8
0
70
0
10
0.0000000
20
0.0000000
0
INSERT
8
0
2
RC0805_MINI_2997
10
0.0000000
20
0.0000000
41
1.0000000
42
1.0000000
43
1.0000000
50
0.0000000
0
ENDBLK
0
BLOCK
2
C32
8
0
70
0
10
0.0000000
20
0.0000000
0
INSERT
8
0
2
RC0805_MINI_3004
10
0.0000000
20
0.0000000
41
1.0000000
42
1.0000000
43
1.0000000
50
0.0000000
0
ENDBLK
0
BLOCK
2
R7
8
0
70
0
10
0.0000000
20
0.0000000
0
INSERT
8
0
2
RC0805_MINI_3011
10
0.0000000
20
0.0000000
41
1.0000000
42
1.0000000
43
1.0000000
50
0.0000000
0
ENDBLK
0
BLOCK
2
R8
8
0
70
0
10
0.0000000
20
0.0000000
0
INSERT
8
0
2
RC0805_MINI_3018
10
0.0000000
20
0.0000000
41
1.0000000
42
1.0000000
43
1.0000000
50
0.0000000
0
ENDBLK
0
BLOCK
2
X2
8
0
70
0
10
0.0000000
20
0.0000000
0
INSERT
8
0
2
PW10_2_M_3025
10
0.0000000
20
0.0000000
41
1.0000000
42
1.0000000
43
1.0000000
50
0.0000000
0
INSERT
8
0
2
def52
10
3.2421260
20
2.9114173
41
1.0000000
42
1.0000000
43
1.0000000
50
180.0000000
0
INSERT
8
0
2
def38
10
3.2421260
20
3.0098425
41
1.0000000
42
1.0000000
43
1.0000000
50
180.0000000
0
ENDBLK
0
BLOCK
2
R31
8
0
70
0
10
0.0000000
20
0.0000000
0
INSERT
8
0
2
RC0805_MINI_3041
10
0.0000000
20
0.0000000
41
1.0000000
42
1.0000000
43
1.0000000
50
0.0000000
0
ENDBLK
0
BLOCK
2
C25
8
0
70
0
10
0.0000000
20
0.0000000
0
INSERT
8
0
2
RC0805_MINI_3049
10
0.0000000
20
0.0000000
41
1.0000000
42
1.0000000
43
1.0000000
50
0.0000000
0
ENDBLK
0
BLOCK
2
C28
8
0
70
0
10
0.0000000
20
0.0000000
0
INSERT
8
0
2
RC0805_MINI_3056
10
0.0000000
20
0.0000000
41
1.0000000
42
1.0000000
43
1.0000000
50
0.0000000
0
ENDBLK
0
BLOCK
2
C23
8
0
70
0
10
0.0000000
20
0.0000000
0
INSERT
8
0
2
RC0805_MINI_3063
10
0.0000000
20
0.0000000
41
1.0000000
42
1.0000000
43
1.0000000
50
0.0000000
0
ENDBLK
0
BLOCK
2
U9
8
0
70
0
10
0.0000000
20
0.0000000
0
INSERT
8
0
2
TRANS_PIN_3070
10
0.0000000
20
0.0000000
41
1.0000000
42
1.0000000
43
1.0000000
50
0.0000000
0
INSERT
8
0
2
1__2_27
10
4.8484252
20
3.0098425
41
1.0000000
42
1.0000000
43
1.0000000
50
90.0000000
0
ENDBLK
0
BLOCK
2
R11
8
0
70
0
10
0.0000000
20
0.0000000
0
INSERT
8
0
2
RC0805_MINI_3075
10
0.0000000
20
0.0000000
41
1.0000000
42
1.0000000
43
1.0000000
50
0.0000000
0
ENDBLK
0
BLOCK
2
R13
8
0
70
0
10
0.0000000
20
0.0000000
0
INSERT
8
0
2
RC0805_MINI_3082
10
0.0000000
20
0.0000000
41
1.0000000
42
1.0000000
43
1.0000000
50
0.0000000
0
ENDBLK
0
BLOCK
2
R16
8
0
70
0
10
0.0000000
20
0.0000000
0
INSERT
8
0
2
RC0805_MINI_3089
10
0.0000000
20
0.0000000
41
1.0000000
42
1.0000000
43
1.0000000
50
0.0000000
0
ENDBLK
0
BLOCK
2
R18
8
0
70
0
10
0.0000000
20
0.0000000
0
INSERT
8
0
2
RC0805_MINI_3096
10
0.0000000
20
0.0000000
41
1.0000000
42
1.0000000
43
1.0000000
50
0.0000000
0
ENDBLK
0
BLOCK
2
C30
8
0
70
0
10
0.0000000
20
0.0000000
0
INSERT
8
0
2
RC0805_MINI_3103
10
0.0000000
20
0.0000000
41
1.0000000
42
1.0000000
43
1.0000000
50
0.0000000
0
ENDBLK
0
BLOCK
2
C37
8
0
70
0
10
0.0000000
20
0.0000000
0
INSERT
8
0
2
RC0805_MINI_3110
10
0.0000000
20
0.0000000
41
1.0000000
42
1.0000000
43
1.0000000
50
0.0000000
0
ENDBLK
0
BLOCK
2
C8
8
0
70
0
10
0.0000000
20
0.0000000
0
INSERT
8
0
2
RC0805_MINI_3119
10
0.0000000
20
0.0000000
41
1.0000000
42
1.0000000
43
1.0000000
50
0.0000000
0
ENDBLK
0
BLOCK
2
L2
8
0
70
0
10
0.0000000
20
0.0000000
0
INSERT
8
0
2
RC0805_MINI_3126
10
0.0000000
20
0.0000000
41
1.0000000
42
1.0000000
43
1.0000000
50
0.0000000
0
ENDBLK
0
BLOCK
2
R6
8
0
70
0
10
0.0000000
20
0.0000000
0
INSERT
8
0
2
RC0805_MINI_3133
10
0.0000000
20
0.0000000
41
1.0000000
42
1.0000000
43
1.0000000
50
0.0000000
0
ENDBLK
0
BLOCK
2
R9
8
0
70
0
10
0.0000000
20
0.0000000
0
INSERT
8
0
2
RC0805_MINI_3140
10
0.0000000
20
0.0000000
41
1.0000000
42
1.0000000
43
1.0000000
50
0.0000000
0
ENDBLK
0
BLOCK
2
X1
8
0
70
0
10
0.0000000
20
0.0000000
0
INSERT
8
0
2
PW10_6_M_3147
10
0.0000000
20
0.0000000
41
1.0000000
42
1.0000000
43
1.0000000
50
0.0000000
0
INSERT
8
0
2
def2
10
3.5177165
20
2.6492126
41
1.0000000
42
1.0000000
43
1.0000000
50
180.0000000
0
INSERT
8
0
2
def5
10
3.5177165
20
2.5507874
41
1.0000000
42
1.0000000
43
1.0000000
50
180.0000000
0
INSERT
8
0
2
def22
10
3.5177165
20
2.9444882
41
1.0000000
42
1.0000000
43
1.0000000
50
180.0000000
0
INSERT
8
0
2
def53
10
3.5177165
20
2.8460630
41
1.0000000
42
1.0000000
43
1.0000000
50
180.0000000
0
INSERT
8
0
2
def29
10
3.5177165
20
2.4523622
41
1.0000000
42
1.0000000
43
1.0000000
50
180.0000000
0
INSERT
8
0
2
def10
10
3.5177165
20
2.7476378
41
1.0000000
42
1.0000000
43
1.0000000
50
180.0000000
0
ENDBLK
0
BLOCK
2
DA1
8
0
70
0
10
0.0000000
20
0.0000000
0
INSERT
8
0
2
SOT353_SC70_MO_203_SC_88_3167
10
0.0000000
20
0.0000000
41
1.0000000
42
1.0000000
43
1.0000000
50
0.0000000
0
ENDBLK
0
BLOCK
2
U1
8
0
70
0
10
0.0000000
20
0.0000000
0
INSERT
8
0
2
_R6354_3183
10
0.0000000
20
0.0000000
41
1.0000000
42
1.0000000
43
1.0000000
50
0.0000000
0
INSERT
8
0
2
E6788_11U16
10
5.5694528
20
2.8346457
41
1.0000000
42
1.0000000
43
1.0000000
50
30.0000000
0
INSERT
8
0
2
E6788_11U14
10
5.5694531
20
2.6771657
41
1.0000000
42
1.0000000
43
1.0000000
50
330.0000000
0
INSERT
8
0
2
E6788_11U15
10
5.5905512
20
2.7559059
41
1.0000000
42
1.0000000
43
1.0000000
50
0.0000000
0
INSERT
8
0
2
E6788_11U19
10
5.3543307
20
2.8922874
41
1.0000000
42
1.0000000
43
1.0000000
50
210.0000000
0
INSERT
8
0
2
E6788_11U12
10
5.2755906
20
2.7559051
41
1.0000000
42
1.0000000
43
1.0000000
50
180.0000000
0
INSERT
8
0
2
E6788_11U20
10
5.2966886
20
2.8346453
41
1.0000000
42
1.0000000
43
1.0000000
50
150.0000000
0
INSERT
8
0
2
E6788_11U8
10
5.5118110
20
2.6195236
41
1.0000000
42
1.0000000
43
1.0000000
50
300.0000000
0
INSERT
8
0
2
E6788_11U18
10
5.4330705
20
2.9133858
41
1.0000000
42
1.0000000
43
1.0000000
50
90.0000000
0
INSERT
8
0
2
E6788_11U17
10
5.5118106
20
2.8922878
41
1.0000000
42
1.0000000
43
1.0000000
50
60.0000000
0
INSERT
8
0
2
E6788_11U7
10
5.4330713
20
2.5984252
41
1.0000000
42
1.0000000
43
1.0000000
50
270.0000000
0
INSERT
8
0
2
E6788_11U32
10
5.3543311
20
2.6195232
41
1.0000000
42
1.0000000
43
1.0000000
50
240.0000000
0
ENDBLK
0
BLOCK
2
VD7
8
0
70
0
10
0.0000000
20
0.0000000
0
INSERT
8
0
2
SOT457_3208
10
0.0000000
20
0.0000000
41
1.0000000
42
1.0000000
43
1.0000000
50
0.0000000
0
ENDBLK
0
ENDSEC
0
SECTION
2
ENTITIES
0
INSERT
8
0
2
M3
10
3.0708661
20
2.5787402
41
1.0000000
42
1.0000000
43
1.0000000
50
0.0000000
0
INSERT
8
0
2
R32
10
0.0000000
20
0.0000000
41
1.0000000
42
1.0000000
43
1.0000000
50
0.0000000
0
INSERT
8
0
2
mini22
10
3.8484252
20
2.5019685
41
1.0000000
42
1.0000000
43
1.0000000
50
0.0000000
0
INSERT
8
0
2
C12
10
0.0000000
20
0.0000000
41
1.0000000
42
1.0000000
43
1.0000000
50
0.0000000
0
INSERT
8
0
2
R30
10
0.0000000
20
0.0000000
41
1.0000000
42
1.0000000
43
1.0000000
50
0.0000000
0
INSERT
8
0
2
VD1
10
0.0000000
20
0.0000000
41
1.0000000
42
1.0000000
43
1.0000000
50
0.0000000
0
INSERT
8
0
2
mini22
10
4.0866142
20
2.5059055
41
1.0000000
42
1.0000000
43
1.0000000
50
0.0000000
0
INSERT
8
0
2
mini11
10
3.9251969
20
2.5019685
41
1.0000000
42
1.0000000
43
1.0000000
50
0.0000000
0
INSERT
8
0
2
VD3
10
0.0000000
20
0.0000000
41
1.0000000
42
1.0000000
43
1.0000000
50
0.0000000
0
INSERT
8
0
2
C15
10
0.0000000
20
0.0000000
41
1.0000000
42
1.0000000
43
1.0000000
50
0.0000000
0
INSERT
8
0
2
mini2
10
4.4350394
20
2.5748031
41
1.0000000
42
1.0000000
43
1.0000000
50
0.0000000
0
INSERT
8
0
2
C38
10
0.0000000
20
0.0000000
41
1.0000000
42
1.0000000
43
1.0000000
50
0.0000000
0
INSERT
8
0
2
mini56
10
4.2677165
20
2.5255906
41
1.0000000
42
1.0000000
43
1.0000000
50
180.0000000
0
INSERT
8
0
2
mini36
10
4.2401575
20
2.4547244
41
1.0000000
42
1.0000000
43
1.0000000
50
0.0000000
0
INSERT
8
0
2
C14
10
0.0000000
20
0.0000000
41
1.0000000
42
1.0000000
43
1.0000000
50
0.0000000
0
INSERT
8
0
2
C36
10
0.0000000
20
0.0000000
41
1.0000000
42
1.0000000
43
1.0000000
50
0.0000000
0
INSERT
8
0
2
R33
10
0.0000000
20
0.0000000
41
1.0000000
42
1.0000000
43
1.0000000
50
0.0000000
0
INSERT
8
0
2
U7
10
0.0000000
20
0.0000000
41
1.0000000
42
1.0000000
43
1.0000000
50
0.0000000
0
INSERT
8
0
2
VD5
10
0.0000000
20
0.0000000
41
1.0000000
42
1.0000000
43
1.0000000
50
0.0000000
0
INSERT
8
0
2
C17
10
0.0000000
20
0.0000000
41
1.0000000
42
1.0000000
43
1.0000000
50
0.0000000
0
INSERT
8
0
2
U8
10
0.0000000
20
0.0000000
41
1.0000000
42
1.0000000
43
1.0000000
50
0.0000000
0
INSERT
8
0
2
U5
10
0.0000000
20
0.0000000
41
1.0000000
42
1.0000000
43
1.0000000
50
0.0000000
0
INSERT
8
0
2
U4
10
0.0000000
20
0.0000000
41
1.0000000
42
1.0000000
43
1.0000000
50
0.0000000
0
INSERT
8
0
2
R34
10
0.0000000
20
0.0000000
41
1.0000000
42
1.0000000
43
1.0000000
50
0.0000000
0
INSERT
8
0
2
R28
10
0.0000000
20
0.0000000
41
1.0000000
42
1.0000000
43
1.0000000
50
0.0000000
0
INSERT
8
0
2
C20
10
0.0000000
20
0.0000000
41
1.0000000
42
1.0000000
43
1.0000000
50
0.0000000
0
INSERT
8
0
2
C19
10
0.0000000
20
0.0000000
41
1.0000000
42
1.0000000
43
1.0000000
50
0.0000000
0
INSERT
8
0
2
R26
10
0.0000000
20
0.0000000
41
1.0000000
42
1.0000000
43
1.0000000
50
0.0000000
0
INSERT
8
0
2
R25
10
0.0000000
20
0.0000000
41
1.0000000
42
1.0000000
43
1.0000000
50
0.0000000
0
INSERT
8
0
2
R22
10
0.0000000
20
0.0000000
41
1.0000000
42
1.0000000
43
1.0000000
50
0.0000000
0
INSERT
8
0
2
mini2
10
5.1673228
20
2.5334646
41
1.0000000
42
1.0000000
43
1.0000000
50
0.0000000
0
INSERT
8
0
2
mini2
10
5.1673228
20
2.4704724
41
1.0000000
42
1.0000000
43
1.0000000
50
0.0000000
0
INSERT
8
0
2
mini29
10
5.3169291
20
2.4744094
41
1.0000000
42
1.0000000
43
1.0000000
50
0.0000000
0
INSERT
8
0
2
C10
10
0.0000000
20
0.0000000
41
1.0000000
42
1.0000000
43
1.0000000
50
0.0000000
0
INSERT
8
0
2
C9
10
0.0000000
20
0.0000000
41
1.0000000
42
1.0000000
43
1.0000000
50
0.0000000
0
INSERT
8
0
2
mini10
10
5.1496063
20
2.7716535
41
1.0000000
42
1.0000000
43
1.0000000
50
0.0000000
0
INSERT
8
0
2
C3
10
0.0000000
20
0.0000000
41
1.0000000
42
1.0000000
43
1.0000000
50
0.0000000
0
INSERT
8
0
2
C2
10
0.0000000
20
0.0000000
41
1.0000000
42
1.0000000
43
1.0000000
50
0.0000000
0
INSERT
8
0
2
mini36
10
5.6574803
20
2.4271654
41
1.0000000
42
1.0000000
43
1.0000000
50
0.0000000
0
INSERT
8
0
2
C6
10
0.0000000
20
0.0000000
41
1.0000000
42
1.0000000
43
1.0000000
50
0.0000000
0
INSERT
8
0
2
mini56
10
5.7244094
20
2.4744094
41
1.0000000
42
1.0000000
43
1.0000000
50
0.0000000
0
INSERT
8
0
2
C22
10
0.0000000
20
0.0000000
41
1.0000000
42
1.0000000
43
1.0000000
50
0.0000000
0
INSERT
8
0
2
C21
10
0.0000000
20
0.0000000
41
1.0000000
42
1.0000000
43
1.0000000
50
0.0000000
0
INSERT
8
0
2
R12
10
0.0000000
20
0.0000000
41
1.0000000
42
1.0000000
43
1.0000000
50
0.0000000
0
INSERT
8
0
2
C24
10
0.0000000
20
0.0000000
41
1.0000000
42
1.0000000
43
1.0000000
50
0.0000000
0
INSERT
8
0
2
R14
10
0.0000000
20
0.0000000
41
1.0000000
42
1.0000000
43
1.0000000
50
0.0000000
0
INSERT
8
0
2
R15
10
0.0000000
20
0.0000000
41
1.0000000
42
1.0000000
43
1.0000000
50
0.0000000
0
INSERT
8
0
2
R23
10
0.0000000
20
0.0000000
41
1.0000000
42
1.0000000
43
1.0000000
50
0.0000000
0
INSERT
8
0
2
R27
10
0.0000000
20
0.0000000
41
1.0000000
42
1.0000000
43
1.0000000
50
0.0000000
0
INSERT
8
0
2
C27
10
0.0000000
20
0.0000000
41
1.0000000
42
1.0000000
43
1.0000000
50
0.0000000
0
INSERT
8
0
2
R29
10
0.0000000
20
0.0000000
41
1.0000000
42
1.0000000
43
1.0000000
50
0.0000000
0
INSERT
8
0
2
C26
10
0.0000000
20
0.0000000
41
1.0000000
42
1.0000000
43
1.0000000
50
0.0000000
0
INSERT
8
0
2
R17
10
0.0000000
20
0.0000000
41
1.0000000
42
1.0000000
43
1.0000000
50
0.0000000
0
INSERT
8
0
2
C29
10
0.0000000
20
0.0000000
41
1.0000000
42
1.0000000
43
1.0000000
50
0.0000000
0
INSERT
8
0
2
C34
10
0.0000000
20
0.0000000
41
1.0000000
42
1.0000000
43
1.0000000
50
0.0000000
0
INSERT
8
0
2
U6
10
0.0000000
20
0.0000000
41
1.0000000
42
1.0000000
43
1.0000000
50
0.0000000
0
INSERT
8
0
2
L1
10
0.0000000
20
0.0000000
41
1.0000000
42
1.0000000
43
1.0000000
50
0.0000000
0
INSERT
8
0
2
VT1
10
0.0000000
20
0.0000000
41
1.0000000
42
1.0000000
43
1.0000000
50
0.0000000
0
INSERT
8
0
2
R19
10
0.0000000
20
0.0000000
41
1.0000000
42
1.0000000
43
1.0000000
50
0.0000000
0
INSERT
8
0
2
R20
10
0.0000000
20
0.0000000
41
1.0000000
42
1.0000000
43
1.0000000
50
0.0000000
0
INSERT
8
0
2
R2
10
0.0000000
20
0.0000000
41
1.0000000
42
1.0000000
43
1.0000000
50
0.0000000
0
INSERT
8
0
2
C1
10
0.0000000
20
0.0000000
41
1.0000000
42
1.0000000
43
1.0000000
50
0.0000000
0
INSERT
8
0
2
R1
10
0.0000000
20
0.0000000
41
1.0000000
42
1.0000000
43
1.0000000
50
0.0000000
0
INSERT
8
0
2
C4
10
0.0000000
20
0.0000000
41
1.0000000
42
1.0000000
43
1.0000000
50
0.0000000
0
INSERT
8
0
2
R5
10
0.0000000
20
0.0000000
41
1.0000000
42
1.0000000
43
1.0000000
50
0.0000000
0
INSERT
8
0
2
C7
10
0.0000000
20
0.0000000
41
1.0000000
42
1.0000000
43
1.0000000
50
0.0000000
0
INSERT
8
0
2
M3
10
5.9055118
20
3.0118110
41
1.0000000
42
1.0000000
43
1.0000000
50
0.0000000
0
INSERT
8
0
2
VD8
10
0.0000000
20
0.0000000
41
1.0000000
42
1.0000000
43
1.0000000
50
0.0000000
0
INSERT
8
0
2
VT3
10
0.0000000
20
0.0000000
41
1.0000000
42
1.0000000
43
1.0000000
50
0.0000000
0
INSERT
8
0
2
VD2
10
0.0000000
20
0.0000000
41
1.0000000
42
1.0000000
43
1.0000000
50
0.0000000
0
INSERT
8
0
2
C33
10
0.0000000
20
0.0000000
41
1.0000000
42
1.0000000
43
1.0000000
50
0.0000000
0
INSERT
8
0
2
VD6
10
0.0000000
20
0.0000000
41
1.0000000
42
1.0000000
43
1.0000000
50
0.0000000
0
INSERT
8
0
2
C18
10
0.0000000
20
0.0000000
41
1.0000000
42
1.0000000
43
1.0000000
50
0.0000000
0
INSERT
8
0
2
DA2
10
0.0000000
20
0.0000000
41
1.0000000
42
1.0000000
43
1.0000000
50
0.0000000
0
INSERT
8
0
2
VD4
10
0.0000000
20
0.0000000
41
1.0000000
42
1.0000000
43
1.0000000
50
0.0000000
0
INSERT
8
0
2
C16
10
0.0000000
20
0.0000000
41
1.0000000
42
1.0000000
43
1.0000000
50
0.0000000
0
INSERT
8
0
2
C13
10
0.0000000
20
0.0000000
41
1.0000000
42
1.0000000
43
1.0000000
50
0.0000000
0
INSERT
8
0
2
C11
10
0.0000000
20
0.0000000
41
1.0000000
42
1.0000000
43
1.0000000
50
0.0000000
0
INSERT
8
0
2
U3
10
0.0000000
20
0.0000000
41
1.0000000
42
1.0000000
43
1.0000000
50
0.0000000
0
INSERT
8
0
2
R21
10
0.0000000
20
0.0000000
41
1.0000000
42
1.0000000
43
1.0000000
50
0.0000000
0
INSERT
8
0
2
mini10
10
4.2027559
20
2.7598425
41
1.0000000
42
1.0000000
43
1.0000000
50
0.0000000
0
INSERT
8
0
2
U2
10
0.0000000
20
0.0000000
41
1.0000000
42
1.0000000
43
1.0000000
50
0.0000000
0
INSERT
8
0
2
R3
10
0.0000000
20
0.0000000
41
1.0000000
42
1.0000000
43
1.0000000
50
0.0000000
0
INSERT
8
0
2
C35
10
0.0000000
20
0.0000000
41
1.0000000
42
1.0000000
43
1.0000000
50
0.0000000
0
INSERT
8
0
2
R10
10
0.0000000
20
0.0000000
41
1.0000000
42
1.0000000
43
1.0000000
50
0.0000000
0
INSERT
8
0
2
L4
10
0.0000000
20
0.0000000
41
1.0000000
42
1.0000000
43
1.0000000
50
0.0000000
0
INSERT
8
0
2
R24
10
0.0000000
20
0.0000000
41
1.0000000
42
1.0000000
43
1.0000000
50
0.0000000
0
INSERT
8
0
2
mini10
10
5.0944882
20
2.5098425
41
1.0000000
42
1.0000000
43
1.0000000
50
0.0000000
0
INSERT
8
0
2
R4
10
0.0000000
20
0.0000000
41
1.0000000
42
1.0000000
43
1.0000000
50
0.0000000
0
INSERT
8
0
2
C5
10
0.0000000
20
0.0000000
41
1.0000000
42
1.0000000
43
1.0000000
50
0.0000000
0
INSERT
8
0
2
L3
10
0.0000000
20
0.0000000
41
1.0000000
42
1.0000000
43
1.0000000
50
0.0000000
0
INSERT
8
0
2
C32
10
0.0000000
20
0.0000000
41
1.0000000
42
1.0000000
43
1.0000000
50
0.0000000
0
INSERT
8
0
2
R7
10
0.0000000
20
0.0000000
41
1.0000000
42
1.0000000
43
1.0000000
50
0.0000000
0
INSERT
8
0
2
R8
10
0.0000000
20
0.0000000
41
1.0000000
42
1.0000000
43
1.0000000
50
0.0000000
0
INSERT
8
0
2
X2
10
0.0000000
20
0.0000000
41
1.0000000
42
1.0000000
43
1.0000000
50
0.0000000
0
INSERT
8
0
2
R31
10
0.0000000
20
0.0000000
41
1.0000000
42
1.0000000
43
1.0000000
50
0.0000000
0
INSERT
8
0
2
C25
10
0.0000000
20
0.0000000
41
1.0000000
42
1.0000000
43
1.0000000
50
0.0000000
0
INSERT
8
0
2
C28
10
0.0000000
20
0.0000000
41
1.0000000
42
1.0000000
43
1.0000000
50
0.0000000
0
INSERT
8
0
2
C23
10
0.0000000
20
0.0000000
41
1.0000000
42
1.0000000
43
1.0000000
50
0.0000000
0
INSERT
8
0
2
U9
10
0.0000000
20
0.0000000
41
1.0000000
42
1.0000000
43
1.0000000
50
0.0000000
0
INSERT
8
0
2
R11
10
0.0000000
20
0.0000000
41
1.0000000
42
1.0000000
43
1.0000000
50
0.0000000
0
INSERT
8
0
2
R13
10
0.0000000
20
0.0000000
41
1.0000000
42
1.0000000
43
1.0000000
50
0.0000000
0
INSERT
8
0
2
R16
10
0.0000000
20
0.0000000
41
1.0000000
42
1.0000000
43
1.0000000
50
0.0000000
0
INSERT
8
0
2
R18
10
0.0000000
20
0.0000000
41
1.0000000
42
1.0000000
43
1.0000000
50
0.0000000
0
INSERT
8
0
2
C30
10
0.0000000
20
0.0000000
41
1.0000000
42
1.0000000
43
1.0000000
50
0.0000000
0
INSERT
8
0
2
C37
10
0.0000000
20
0.0000000
41
1.0000000
42
1.0000000
43
1.0000000
50
0.0000000
0
INSERT
8
0
2
mini22
10
5.3937008
20
2.3858268
41
1.0000000
42
1.0000000
43
1.0000000
50
0.0000000
0
INSERT
8
0
2
M3
10
5.4330709
20
2.7559055
41
1.0000000
42
1.0000000
43
1.0000000
50
0.0000000
0
INSERT
8
0
2
C8
10
0.0000000
20
0.0000000
41
1.0000000
42
1.0000000
43
1.0000000
50
0.0000000
0
INSERT
8
0
2
L2
10
0.0000000
20
0.0000000
41
1.0000000
42
1.0000000
43
1.0000000
50
0.0000000
0
INSERT
8
0
2
R6
10
0.0000000
20
0.0000000
41
1.0000000
42
1.0000000
43
1.0000000
50
0.0000000
0
INSERT
8
0
2
R9
10
0.0000000
20
0.0000000
41
1.0000000
42
1.0000000
43
1.0000000
50
0.0000000
0
INSERT
8
0
2
X1
10
0.0000000
20
0.0000000
41
1.0000000
42
1.0000000
43
1.0000000
50
0.0000000
0
INSERT
8
0
2
DA1
10
0.0000000
20
0.0000000
41
1.0000000
42
1.0000000
43
1.0000000
50
0.0000000
0
INSERT
8
0
2
U1
10
0.0000000
20
0.0000000
41
1.0000000
42
1.0000000
43
1.0000000
50
0.0000000
0
INSERT
8
0
2
VD7
10
0.0000000
20
0.0000000
41
1.0000000
42
1.0000000
43
1.0000000
50
0.0000000
0
INSERT
8
Board
2
UNIT_DISC
10
2.8740157
20
2.3425197
41
0.0100000
42
0.0100000
43
0.0100000
50
0.0000000
0
INSERT
8
Board
2
UNIT_DISC
10
2.8740157
20
3.1299213
41
0.0100000
42
0.0100000
43
0.0100000
50
0.0000000
0
POLYLINE
8
Board
6
CONTINUOUS
66
1
70
0
40
0.0100000
41
0.0100000
0
VERTEX
8
Board
10
2.8740157
20
2.3425197
42
0.0000000
0
VERTEX
8
Board
10
2.8740157
20
3.1299213
42
0.0000000
0
SEQEND
0
INSERT
8
Board
2
UNIT_DISC
10
6.0236220
20
3.1299213
41
0.0100000
42
0.0100000
43
0.0100000
50
0.0000000
0
INSERT
8
Board
2
UNIT_DISC
10
6.0236220
20
2.3425197
41
0.0100000
42
0.0100000
43
0.0100000
50
0.0000000
0
POLYLINE
8
Board
6
CONTINUOUS
66
1
70
0
40
0.0100000
41
0.0100000
0
VERTEX
8
Board
10
6.0236220
20
3.1299213
42
0.0000000
0
VERTEX
8
Board
10
6.0236220
20
2.3425197
42
0.0000000
0
SEQEND
0
INSERT
8
Board
2
UNIT_DISC
10
6.0236220
20
2.3425197
41
0.0100000
42
0.0100000
43
0.0100000
50
0.0000000
0
INSERT
8
Board
2
UNIT_DISC
10
2.8740157
20
2.3425197
41
0.0100000
42
0.0100000
43
0.0100000
50
0.0000000
0
POLYLINE
8
Board
6
CONTINUOUS
66
1
70
0
40
0.0100000
41
0.0100000
0
VERTEX
8
Board
10
6.0236220
20
2.3425197
42
0.0000000
0
VERTEX
8
Board
10
2.8740157
20
2.3425197
42
0.0000000
0
SEQEND
0
INSERT
8
Board
2
UNIT_DISC
10
2.8740157
20
3.1299213
41
0.0100000
42
0.0100000
43
0.0100000
50
0.0000000
0
INSERT
8
Board
2
UNIT_DISC
10
6.0236220
20
3.1299213
41
0.0100000
42
0.0100000
43
0.0100000
50
0.0000000
0
POLYLINE
8
Board
6
CONTINUOUS
66
1
70
0
40
0.0100000
41
0.0100000
0
VERTEX
8
Board
10
2.8740157
20
3.1299213
42
0.0000000
0
VERTEX
8
Board
10
6.0236220
20
3.1299213
42
0.0000000
0
SEQEND
0
POLYLINE
8
Bot_Assy
6
CONTINUOUS
66
1
70
1
40
0.0100000
41
0.0100000
0
VERTEX
8
Bot_Assy
10
4.5798157
20
2.9562669
42
1.0000000
0
VERTEX
8
Bot_Assy
10
4.6409543
20
2.7280953
42
1.0000000
0
SEQEND
0
POLYLINE
8
Bot_Assy
6
CONTINUOUS
66
1
70
1
40
0.0100000
41
0.0100000
0
VERTEX
8
Bot_Assy
10
4.5390571
20
3.1083811
42
1.0000000
0
VERTEX
8
Bot_Assy
10
4.6817130
20
2.5759811
42
1.0000000
0
SEQEND
0
ENDSEC
0
EOF
