0
SECTION
2
HEADER
9
$ACADVER
1
AC1009
9
$TEXTSTYLE
7
STANDARD
9
$CECOLOR
62
256
9
$AUNITS
70
0
9
$LUNITS
70
3
9
$EXTMIN
10
0.6249213
20
0.3887008
9
$EXTMAX
10
3.6664173
20
1.3830094
9
$FILLMODE
70
1
0
ENDSEC
0
SECTION
2
TABLES
0
TABLE
2
LAYER
70
1
0
LAYER
2
Board
70
64
62
3
6
CONTINUOUS
0
LAYER
2
Drill_Layer
70
64
62
255
6
CONTINUOUS
0
ENDTAB
0
ENDSEC
0
SECTION
2
BLOCKS
0
BLOCK
2
UNIT_DISC
8
0
70
0
10
0.0000000
20
0.0000000
0
POLYLINE
8
0
6
CONTINUOUS
66
1
70
1
40
0.5000000
41
0.5000000
0
VERTEX
8
0
10
0.2500000
20
0.0000000
42
1.0000000
0
VERTEX
8
0
10
-0.2500000
20
0.0000000
42
1.0000000
0
SEQEND
0
ENDBLK
0
BLOCK
2
UNIT_CIRCLE
8
0
70
0
10
0.0000000
20
0.0000000
0
CIRCLE
8
0
6
CONTINUOUS
10
0.0000000
20
0.0000000
40
0.5000000
0
ENDBLK
0
BLOCK
2
rc0805mini5_F
8
0
70
0
10
0.0000000
20
0.0000000
0
ENDBLK
0
BLOCK
2
rc0805mini23_F
8
0
70
0
10
0.0000000
20
0.0000000
0
ENDBLK
0
BLOCK
2
rc0805mini57_F
8
0
70
0
10
0.0000000
20
0.0000000
0
ENDBLK
0
BLOCK
2
rc0805mini2_F
8
0
70
0
10
0.0000000
20
0.0000000
0
ENDBLK
0
BLOCK
2
mini2
8
0
70
0
10
0.0000000
20
0.0000000
0
ENDBLK
0
BLOCK
2
rc0805mini14
8
0
70
0
10
0.0000000
20
0.0000000
0
ENDBLK
0
BLOCK
2
rc0805mini56
8
0
70
0
10
0.0000000
20
0.0000000
0
ENDBLK
0
BLOCK
2
mini56
8
0
70
0
10
0.0000000
20
0.0000000
0
ENDBLK
0
BLOCK
2
mini36
8
0
70
0
10
0.0000000
20
0.0000000
0
ENDBLK
0
BLOCK
2
mini29
8
0
70
0
10
0.0000000
20
0.0000000
0
ENDBLK
0
BLOCK
2
mini22
8
0
70
0
10
0.0000000
20
0.0000000
0
ENDBLK
0
BLOCK
2
rc0805mini16
8
0
70
0
10
0.0000000
20
0.0000000
0
ENDBLK
0
BLOCK
2
rc0805mini42
8
0
70
0
10
0.0000000
20
0.0000000
0
ENDBLK
0
BLOCK
2
mini40
8
0
70
0
10
0.0000000
20
0.0000000
0
ENDBLK
0
BLOCK
2
rc0805mini19
8
0
70
0
10
0.0000000
20
0.0000000
0
ENDBLK
0
BLOCK
2
rc0805mini18
8
0
70
0
10
0.0000000
20
0.0000000
0
ENDBLK
0
BLOCK
2
rc0805mini48
8
0
70
0
10
0.0000000
20
0.0000000
0
ENDBLK
0
BLOCK
2
rc0805mini9
8
0
70
0
10
0.0000000
20
0.0000000
0
ENDBLK
0
BLOCK
2
rc0805mini50
8
0
70
0
10
0.0000000
20
0.0000000
0
ENDBLK
0
BLOCK
2
rc0805mini51
8
0
70
0
10
0.0000000
20
0.0000000
0
ENDBLK
0
BLOCK
2
rc0805mini49
8
0
70
0
10
0.0000000
20
0.0000000
0
ENDBLK
0
BLOCK
2
rc0805mini47
8
0
70
0
10
0.0000000
20
0.0000000
0
ENDBLK
0
BLOCK
2
rc0805mini46
8
0
70
0
10
0.0000000
20
0.0000000
0
ENDBLK
0
BLOCK
2
rc0805mini44
8
0
70
0
10
0.0000000
20
0.0000000
0
ENDBLK
0
BLOCK
2
bas21vd45
8
0
70
0
10
0.0000000
20
0.0000000
0
ENDBLK
0
BLOCK
2
bas21vd43
8
0
70
0
10
0.0000000
20
0.0000000
0
ENDBLK
0
BLOCK
2
bas21vd44
8
0
70
0
10
0.0000000
20
0.0000000
0
ENDBLK
0
BLOCK
2
bas21vd46
8
0
70
0
10
0.0000000
20
0.0000000
0
ENDBLK
0
BLOCK
2
rc0805mini38
8
0
70
0
10
0.0000000
20
0.0000000
0
ENDBLK
0
BLOCK
2
rc0805mini40
8
0
70
0
10
0.0000000
20
0.0000000
0
ENDBLK
0
BLOCK
2
bas21vd39
8
0
70
0
10
0.0000000
20
0.0000000
0
ENDBLK
0
BLOCK
2
bas21vd37
8
0
70
0
10
0.0000000
20
0.0000000
0
ENDBLK
0
BLOCK
2
bas21vd56
8
0
70
0
10
0.0000000
20
0.0000000
0
ENDBLK
0
BLOCK
2
bas21vd40
8
0
70
0
10
0.0000000
20
0.0000000
0
ENDBLK
0
BLOCK
2
rc0805mini3_F
8
0
70
0
10
0.0000000
20
0.0000000
0
ENDBLK
0
BLOCK
2
rc0805mini27_F
8
0
70
0
10
0.0000000
20
0.0000000
0
ENDBLK
0
BLOCK
2
mini27
8
0
70
0
10
0.0000000
20
0.0000000
0
ENDBLK
0
BLOCK
2
rc0805mini36
8
0
70
0
10
0.0000000
20
0.0000000
0
ENDBLK
0
BLOCK
2
rc0805mini22
8
0
70
0
10
0.0000000
20
0.0000000
0
ENDBLK
0
BLOCK
2
1__2_27
8
0
70
0
10
0.0000000
20
0.0000000
0
ENDBLK
0
BLOCK
2
1__2_25
8
0
70
0
10
0.0000000
20
0.0000000
0
ENDBLK
0
BLOCK
2
1__2_26
8
0
70
0
10
0.0000000
20
0.0000000
0
ENDBLK
0
BLOCK
2
rc0805mini29
8
0
70
0
10
0.0000000
20
0.0000000
0
ENDBLK
0
BLOCK
2
rc0805mini11
8
0
70
0
10
0.0000000
20
0.0000000
0
ENDBLK
0
BLOCK
2
rc0805mini13
8
0
70
0
10
0.0000000
20
0.0000000
0
ENDBLK
0
BLOCK
2
rc0805mini21_F
8
0
70
0
10
0.0000000
20
0.0000000
0
ENDBLK
0
BLOCK
2
mini4
8
0
70
0
10
0.0000000
20
0.0000000
0
ENDBLK
0
BLOCK
2
rc0805mini10
8
0
70
0
10
0.0000000
20
0.0000000
0
ENDBLK
0
BLOCK
2
rc0805mini33
8
0
70
0
10
0.0000000
20
0.0000000
0
ENDBLK
0
BLOCK
2
mini10
8
0
70
0
10
0.0000000
20
0.0000000
0
ENDBLK
0
BLOCK
2
rc0805mini30_F
8
0
70
0
10
0.0000000
20
0.0000000
0
ENDBLK
0
BLOCK
2
rc0805mini31_F
8
0
70
0
10
0.0000000
20
0.0000000
0
ENDBLK
0
BLOCK
2
rc0805mini24_F
8
0
70
0
10
0.0000000
20
0.0000000
0
ENDBLK
0
BLOCK
2
rc0805mini29_F
8
0
70
0
10
0.0000000
20
0.0000000
0
ENDBLK
0
BLOCK
2
rc0805mini4_F
8
0
70
0
10
0.0000000
20
0.0000000
0
ENDBLK
0
BLOCK
2
M3
8
0
70
0
10
0.0000000
20
0.0000000
0
ENDBLK
0
BLOCK
2
rc0805mini10_F
8
0
70
0
10
0.0000000
20
0.0000000
0
ENDBLK
0
BLOCK
2
bas21h23_F
8
0
70
0
10
0.0000000
20
0.0000000
0
ENDBLK
0
BLOCK
2
bas21h2_F
8
0
70
0
10
0.0000000
20
0.0000000
0
ENDBLK
0
BLOCK
2
rc0805mini7
8
0
70
0
10
0.0000000
20
0.0000000
0
ENDBLK
0
BLOCK
2
rc0805mini15
8
0
70
0
10
0.0000000
20
0.0000000
0
ENDBLK
0
BLOCK
2
rc0805mini8
8
0
70
0
10
0.0000000
20
0.0000000
0
ENDBLK
0
BLOCK
2
rc0805mini20
8
0
70
0
10
0.0000000
20
0.0000000
0
ENDBLK
0
BLOCK
2
rc0805mini
8
0
70
0
10
0.0000000
20
0.0000000
0
ENDBLK
0
BLOCK
2
rc0805mini17
8
0
70
0
10
0.0000000
20
0.0000000
0
ENDBLK
0
BLOCK
2
bas21vd51
8
0
70
0
10
0.0000000
20
0.0000000
0
ENDBLK
0
BLOCK
2
bas21vd49
8
0
70
0
10
0.0000000
20
0.0000000
0
ENDBLK
0
BLOCK
2
bas21vd50
8
0
70
0
10
0.0000000
20
0.0000000
0
ENDBLK
0
BLOCK
2
bas21vd9
8
0
70
0
10
0.0000000
20
0.0000000
0
ENDBLK
0
BLOCK
2
rc0805mini45
8
0
70
0
10
0.0000000
20
0.0000000
0
ENDBLK
0
BLOCK
2
rc0805mini43
8
0
70
0
10
0.0000000
20
0.0000000
0
ENDBLK
0
BLOCK
2
rc0805mini39
8
0
70
0
10
0.0000000
20
0.0000000
0
ENDBLK
0
BLOCK
2
rc0805mini37
8
0
70
0
10
0.0000000
20
0.0000000
0
ENDBLK
0
BLOCK
2
rc0805mini41
8
0
70
0
10
0.0000000
20
0.0000000
0
ENDBLK
0
BLOCK
2
rc0805mini28_F
8
0
70
0
10
0.0000000
20
0.0000000
0
ENDBLK
0
BLOCK
2
rc0805mini35
8
0
70
0
10
0.0000000
20
0.0000000
0
ENDBLK
0
BLOCK
2
rc0805mini34
8
0
70
0
10
0.0000000
20
0.0000000
0
ENDBLK
0
BLOCK
2
1__2_1
8
0
70
0
10
0.0000000
20
0.0000000
0
ENDBLK
0
BLOCK
2
1__2_6
8
0
70
0
10
0.0000000
20
0.0000000
0
ENDBLK
0
BLOCK
2
P_SX32Y32D0T55
8
0
70
0
10
0.0000000
20
0.0000000
0
ENDBLK
0
BLOCK
2
P_SX32Y32D0T2
8
0
70
0
10
0.0000000
20
0.0000000
0
ENDBLK
0
BLOCK
2
P_SX32Y32D0T54
8
0
70
0
10
0.0000000
20
0.0000000
0
ENDBLK
0
BLOCK
2
rc0805mini12
8
0
70
0
10
0.0000000
20
0.0000000
0
ENDBLK
0
BLOCK
2
rc0805mini32_F
8
0
70
0
10
0.0000000
20
0.0000000
0
ENDBLK
0
BLOCK
2
bas21vd42
8
0
70
0
10
0.0000000
20
0.0000000
0
ENDBLK
0
BLOCK
2
bas21vd41
8
0
70
0
10
0.0000000
20
0.0000000
0
ENDBLK
0
BLOCK
2
1__2_13
8
0
70
0
10
0.0000000
20
0.0000000
0
ENDBLK
0
BLOCK
2
rc0805mini54
8
0
70
0
10
0.0000000
20
0.0000000
0
ENDBLK
0
BLOCK
2
rc0805mini53
8
0
70
0
10
0.0000000
20
0.0000000
0
ENDBLK
0
BLOCK
2
12_F
8
0
70
0
10
0.0000000
20
0.0000000
0
ENDBLK
0
BLOCK
2
124_F
8
0
70
0
10
0.0000000
20
0.0000000
0
ENDBLK
0
BLOCK
2
131_F
8
0
70
0
10
0.0000000
20
0.0000000
0
ENDBLK
0
BLOCK
2
14_F
8
0
70
0
10
0.0000000
20
0.0000000
0
ENDBLK
0
BLOCK
2
110_F
8
0
70
0
10
0.0000000
20
0.0000000
0
ENDBLK
0
BLOCK
2
129_F
8
0
70
0
10
0.0000000
20
0.0000000
0
ENDBLK
0
BLOCK
2
123_F
8
0
70
0
10
0.0000000
20
0.0000000
0
ENDBLK
0
BLOCK
2
15_F
8
0
70
0
10
0.0000000
20
0.0000000
0
ENDBLK
0
BLOCK
2
157_F
8
0
70
0
10
0.0000000
20
0.0000000
0
ENDBLK
0
BLOCK
2
bas21vd48
8
0
70
0
10
0.0000000
20
0.0000000
0
ENDBLK
0
BLOCK
2
bas21vd47
8
0
70
0
10
0.0000000
20
0.0000000
0
ENDBLK
0
BLOCK
2
SOT363__1_28_F
8
0
70
0
10
0.0000000
20
0.0000000
0
ENDBLK
0
BLOCK
2
SOT363__1_1_F
8
0
70
0
10
0.0000000
20
0.0000000
0
ENDBLK
0
BLOCK
2
SOT363__1_25_F
8
0
70
0
10
0.0000000
20
0.0000000
0
ENDBLK
0
BLOCK
2
SOT363__1_33_F
8
0
70
0
10
0.0000000
20
0.0000000
0
ENDBLK
0
BLOCK
2
SOT363__1_26_F
8
0
70
0
10
0.0000000
20
0.0000000
0
ENDBLK
0
BLOCK
2
1__2_33
8
0
70
0
10
0.0000000
20
0.0000000
0
ENDBLK
0
BLOCK
2
bas21vd34
8
0
70
0
10
0.0000000
20
0.0000000
0
ENDBLK
0
BLOCK
2
bas21vd11
8
0
70
0
10
0.0000000
20
0.0000000
0
ENDBLK
0
BLOCK
2
bas21vd22
8
0
70
0
10
0.0000000
20
0.0000000
0
ENDBLK
0
BLOCK
2
rc0805mini52
8
0
70
0
10
0.0000000
20
0.0000000
0
ENDBLK
0
BLOCK
2
rc0805mini55
8
0
70
0
10
0.0000000
20
0.0000000
0
ENDBLK
0
BLOCK
2
rc0805mini6
8
0
70
0
10
0.0000000
20
0.0000000
0
ENDBLK
0
BLOCK
2
def52
8
0
70
0
10
0.0000000
20
0.0000000
0
ENDBLK
0
BLOCK
2
def38
8
0
70
0
10
0.0000000
20
0.0000000
0
ENDBLK
0
BLOCK
2
def2
8
0
70
0
10
0.0000000
20
0.0000000
0
ENDBLK
0
BLOCK
2
def5
8
0
70
0
10
0.0000000
20
0.0000000
0
ENDBLK
0
BLOCK
2
def22
8
0
70
0
10
0.0000000
20
0.0000000
0
ENDBLK
0
BLOCK
2
def53
8
0
70
0
10
0.0000000
20
0.0000000
0
ENDBLK
0
BLOCK
2
def29
8
0
70
0
10
0.0000000
20
0.0000000
0
ENDBLK
0
BLOCK
2
def10
8
0
70
0
10
0.0000000
20
0.0000000
0
ENDBLK
0
BLOCK
2
bas21vd36
8
0
70
0
10
0.0000000
20
0.0000000
0
ENDBLK
0
BLOCK
2
bas21vd35
8
0
70
0
10
0.0000000
20
0.0000000
0
ENDBLK
0
BLOCK
2
VIRTUAL
8
0
70
0
10
0.0000000
20
0.0000000
0
ENDBLK
0
BLOCK
2
E6788_11U16
8
0
70
0
10
0.0000000
20
0.0000000
0
ENDBLK
0
BLOCK
2
E6788_11U14
8
0
70
0
10
0.0000000
20
0.0000000
0
ENDBLK
0
BLOCK
2
E6788_11U15
8
0
70
0
10
0.0000000
20
0.0000000
0
ENDBLK
0
BLOCK
2
E6788_11U19
8
0
70
0
10
0.0000000
20
0.0000000
0
ENDBLK
0
BLOCK
2
E6788_11U12
8
0
70
0
10
0.0000000
20
0.0000000
0
ENDBLK
0
BLOCK
2
E6788_11U20
8
0
70
0
10
0.0000000
20
0.0000000
0
ENDBLK
0
BLOCK
2
E6788_11U8
8
0
70
0
10
0.0000000
20
0.0000000
0
ENDBLK
0
BLOCK
2
E6788_11U18
8
0
70
0
10
0.0000000
20
0.0000000
0
ENDBLK
0
BLOCK
2
E6788_11U17
8
0
70
0
10
0.0000000
20
0.0000000
0
ENDBLK
0
BLOCK
2
E6788_11U7
8
0
70
0
10
0.0000000
20
0.0000000
0
ENDBLK
0
BLOCK
2
E6788_11U32
8
0
70
0
10
0.0000000
20
0.0000000
0
ENDBLK
0
BLOCK
2
RC0805_MINI_215430
8
0
70
0
10
0.0000000
20
0.0000000
0
ENDBLK
0
BLOCK
2
RC0805_MINI_215437
8
0
70
0
10
0.0000000
20
0.0000000
0
ENDBLK
0
BLOCK
2
RC0805_MINI_215444
8
0
70
0
10
0.0000000
20
0.0000000
0
ENDBLK
0
BLOCK
2
RC0805_MINI_215452
8
0
70
0
10
0.0000000
20
0.0000000
0
ENDBLK
0
BLOCK
2
RC0805_MINI_215463
8
0
70
0
10
0.0000000
20
0.0000000
0
ENDBLK
0
BLOCK
2
RC0805_MINI_215471
8
0
70
0
10
0.0000000
20
0.0000000
0
ENDBLK
0
BLOCK
2
RC0805_MINI_215478
8
0
70
0
10
0.0000000
20
0.0000000
0
ENDBLK
0
BLOCK
2
RC0805_MINI_215485
8
0
70
0
10
0.0000000
20
0.0000000
0
ENDBLK
0
BLOCK
2
RC0805_MINI_215492
8
0
70
0
10
0.0000000
20
0.0000000
0
ENDBLK
0
BLOCK
2
RC0805_MINI_215499
8
0
70
0
10
0.0000000
20
0.0000000
0
ENDBLK
0
BLOCK
2
RC0805_MINI_215506
8
0
70
0
10
0.0000000
20
0.0000000
0
ENDBLK
0
BLOCK
2
RC0805_MINI_215513
8
0
70
0
10
0.0000000
20
0.0000000
0
ENDBLK
0
BLOCK
2
SOT457_215520
8
0
70
0
10
0.0000000
20
0.0000000
0
ENDBLK
0
BLOCK
2
RC0805_MINI_215534
8
0
70
0
10
0.0000000
20
0.0000000
0
ENDBLK
0
BLOCK
2
SOT457_215542
8
0
70
0
10
0.0000000
20
0.0000000
0
ENDBLK
0
BLOCK
2
RC0805_MINI_215556
8
0
70
0
10
0.0000000
20
0.0000000
0
ENDBLK
0
BLOCK
2
RC0805_MINI_215564
8
0
70
0
10
0.0000000
20
0.0000000
0
ENDBLK
0
BLOCK
2
RC0805_MINI_215572
8
0
70
0
10
0.0000000
20
0.0000000
0
ENDBLK
0
BLOCK
2
RC0805_MINI_215579
8
0
70
0
10
0.0000000
20
0.0000000
0
ENDBLK
0
BLOCK
2
TRANS_PIN_215588
8
0
70
0
10
0.0000000
20
0.0000000
0
ENDBLK
0
BLOCK
2
TRANS_PIN_215593
8
0
70
0
10
0.0000000
20
0.0000000
0
ENDBLK
0
BLOCK
2
TRANS_PIN_215598
8
0
70
0
10
0.0000000
20
0.0000000
0
ENDBLK
0
BLOCK
2
RC0805_MINI_215604
8
0
70
0
10
0.0000000
20
0.0000000
0
ENDBLK
0
BLOCK
2
RC0805_MINI_215611
8
0
70
0
10
0.0000000
20
0.0000000
0
ENDBLK
0
BLOCK
2
RC0805_MINI_215618
8
0
70
0
10
0.0000000
20
0.0000000
0
ENDBLK
0
BLOCK
2
RC0805_MINI_215627
8
0
70
0
10
0.0000000
20
0.0000000
0
ENDBLK
0
BLOCK
2
RC0805_MINI_215636
8
0
70
0
10
0.0000000
20
0.0000000
0
ENDBLK
0
BLOCK
2
RC0805_MINI_215643
8
0
70
0
10
0.0000000
20
0.0000000
0
ENDBLK
0
BLOCK
2
RC0805_MINI_215650
8
0
70
0
10
0.0000000
20
0.0000000
0
ENDBLK
0
BLOCK
2
RC0805_MINI_215657
8
0
70
0
10
0.0000000
20
0.0000000
0
ENDBLK
0
BLOCK
2
RC0805_MINI_215666
8
0
70
0
10
0.0000000
20
0.0000000
0
ENDBLK
0
BLOCK
2
BAS21H_215673
8
0
70
0
10
0.0000000
20
0.0000000
0
ENDBLK
0
BLOCK
2
RC0805_MINI_215685
8
0
70
0
10
0.0000000
20
0.0000000
0
ENDBLK
0
BLOCK
2
RC0805_MINI_215692
8
0
70
0
10
0.0000000
20
0.0000000
0
ENDBLK
0
BLOCK
2
RC0805_MINI_215699
8
0
70
0
10
0.0000000
20
0.0000000
0
ENDBLK
0
BLOCK
2
RC0805_MINI_215706
8
0
70
0
10
0.0000000
20
0.0000000
0
ENDBLK
0
BLOCK
2
RC0805_MINI_215713
8
0
70
0
10
0.0000000
20
0.0000000
0
ENDBLK
0
BLOCK
2
RC0805_MINI_215720
8
0
70
0
10
0.0000000
20
0.0000000
0
ENDBLK
0
BLOCK
2
RC0805_MINI_215727
8
0
70
0
10
0.0000000
20
0.0000000
0
ENDBLK
0
BLOCK
2
RC0805_MINI_215734
8
0
70
0
10
0.0000000
20
0.0000000
0
ENDBLK
0
BLOCK
2
SOT457_215741
8
0
70
0
10
0.0000000
20
0.0000000
0
ENDBLK
0
BLOCK
2
RC0805_MINI_215755
8
0
70
0
10
0.0000000
20
0.0000000
0
ENDBLK
0
BLOCK
2
RC0805_MINI_215762
8
0
70
0
10
0.0000000
20
0.0000000
0
ENDBLK
0
BLOCK
2
RC0805_MINI_215769
8
0
70
0
10
0.0000000
20
0.0000000
0
ENDBLK
0
BLOCK
2
RC0805_MINI_215776
8
0
70
0
10
0.0000000
20
0.0000000
0
ENDBLK
0
BLOCK
2
RC0805_MINI_215783
8
0
70
0
10
0.0000000
20
0.0000000
0
ENDBLK
0
BLOCK
2
RC0805_MINI_215790
8
0
70
0
10
0.0000000
20
0.0000000
0
ENDBLK
0
BLOCK
2
RC0805_MINI_215797
8
0
70
0
10
0.0000000
20
0.0000000
0
ENDBLK
0
BLOCK
2
RC0805_MINI_215804
8
0
70
0
10
0.0000000
20
0.0000000
0
ENDBLK
0
BLOCK
2
TRANS_PIN_215811
8
0
70
0
10
0.0000000
20
0.0000000
0
ENDBLK
0
BLOCK
2
TRANS_PIN_215816
8
0
70
0
10
0.0000000
20
0.0000000
0
ENDBLK
0
BLOCK
2
SOT_23_EBC__215822
8
0
70
0
10
0.0000000
20
0.0000000
0
ENDBLK
0
BLOCK
2
RC0805_MINI_215835
8
0
70
0
10
0.0000000
20
0.0000000
0
ENDBLK
0
BLOCK
2
RC0805_MINI_215842
8
0
70
0
10
0.0000000
20
0.0000000
0
ENDBLK
0
BLOCK
2
RC0805_MINI_215850
8
0
70
0
10
0.0000000
20
0.0000000
0
ENDBLK
0
BLOCK
2
RC0805_MINI_215857
8
0
70
0
10
0.0000000
20
0.0000000
0
ENDBLK
0
BLOCK
2
RC0805_MINI_215864
8
0
70
0
10
0.0000000
20
0.0000000
0
ENDBLK
0
BLOCK
2
RC0805_MINI_215871
8
0
70
0
10
0.0000000
20
0.0000000
0
ENDBLK
0
BLOCK
2
RC0805_MINI_215880
8
0
70
0
10
0.0000000
20
0.0000000
0
ENDBLK
0
BLOCK
2
RC0805_MINI_215887
8
0
70
0
10
0.0000000
20
0.0000000
0
ENDBLK
0
BLOCK
2
RC0805_MINI_215894
8
0
70
0
10
0.0000000
20
0.0000000
0
ENDBLK
0
BLOCK
2
RC0805_MINI_215901
8
0
70
0
10
0.0000000
20
0.0000000
0
ENDBLK
0
BLOCK
2
RC0805_MINI_215908
8
0
70
0
10
0.0000000
20
0.0000000
0
ENDBLK
0
BLOCK
2
RC0805_MINI_215915
8
0
70
0
10
0.0000000
20
0.0000000
0
ENDBLK
0
BLOCK
2
SOT457_215922
8
0
70
0
10
0.0000000
20
0.0000000
0
ENDBLK
0
BLOCK
2
RC0805_MINI_215936
8
0
70
0
10
0.0000000
20
0.0000000
0
ENDBLK
0
BLOCK
2
RC0805_MINI_215943
8
0
70
0
10
0.0000000
20
0.0000000
0
ENDBLK
0
BLOCK
2
RC0805_MINI_215950
8
0
70
0
10
0.0000000
20
0.0000000
0
ENDBLK
0
BLOCK
2
RC0805_MINI_215957
8
0
70
0
10
0.0000000
20
0.0000000
0
ENDBLK
0
BLOCK
2
TRANS_PIN_215964
8
0
70
0
10
0.0000000
20
0.0000000
0
ENDBLK
0
BLOCK
2
RC0805_MINI_215969
8
0
70
0
10
0.0000000
20
0.0000000
0
ENDBLK
0
BLOCK
2
RC0805_MINI_215977
8
0
70
0
10
0.0000000
20
0.0000000
0
ENDBLK
0
BLOCK
2
RC0805_MINI_215984
8
0
70
0
10
0.0000000
20
0.0000000
0
ENDBLK
0
BLOCK
2
SOT353_SC70_MO_203_SC_88_215991
8
0
70
0
10
0.0000000
20
0.0000000
0
ENDBLK
0
BLOCK
2
RC0805_MINI_216007
8
0
70
0
10
0.0000000
20
0.0000000
0
ENDBLK
0
BLOCK
2
RC0805_MINI_216014
8
0
70
0
10
0.0000000
20
0.0000000
0
ENDBLK
0
BLOCK
2
RC0805_MINI_216021
8
0
70
0
10
0.0000000
20
0.0000000
0
ENDBLK
0
BLOCK
2
RC0805_MINI_216028
8
0
70
0
10
0.0000000
20
0.0000000
0
ENDBLK
0
BLOCK
2
SOT353_SC70_MO_203_SC_88_216036
8
0
70
0
10
0.0000000
20
0.0000000
0
ENDBLK
0
BLOCK
2
RC0805_MINI_216052
8
0
70
0
10
0.0000000
20
0.0000000
0
ENDBLK
0
BLOCK
2
SOT457_216059
8
0
70
0
10
0.0000000
20
0.0000000
0
ENDBLK
0
BLOCK
2
RC0805_MINI_216073
8
0
70
0
10
0.0000000
20
0.0000000
0
ENDBLK
0
BLOCK
2
RC0805_MINI_216080
8
0
70
0
10
0.0000000
20
0.0000000
0
ENDBLK
0
BLOCK
2
RC0805_MINI_216087
8
0
70
0
10
0.0000000
20
0.0000000
0
ENDBLK
0
BLOCK
2
RC0805_MINI_216094
8
0
70
0
10
0.0000000
20
0.0000000
0
ENDBLK
0
BLOCK
2
RC0805_MINI_216101
8
0
70
0
10
0.0000000
20
0.0000000
0
ENDBLK
0
BLOCK
2
RC0805_MINI_216108
8
0
70
0
10
0.0000000
20
0.0000000
0
ENDBLK
0
BLOCK
2
SOT363_216115
8
0
70
0
10
0.0000000
20
0.0000000
0
ENDBLK
0
BLOCK
2
TRANS_PIN_216125
8
0
70
0
10
0.0000000
20
0.0000000
0
ENDBLK
0
BLOCK
2
TRANS_PIN_216130
8
0
70
0
10
0.0000000
20
0.0000000
0
ENDBLK
0
BLOCK
2
SOT457_216135
8
0
70
0
10
0.0000000
20
0.0000000
0
ENDBLK
0
BLOCK
2
RC0805_MINI_216149
8
0
70
0
10
0.0000000
20
0.0000000
0
ENDBLK
0
BLOCK
2
RC0805_MINI_216172
8
0
70
0
10
0.0000000
20
0.0000000
0
ENDBLK
0
BLOCK
2
RC0805_MINI_216179
8
0
70
0
10
0.0000000
20
0.0000000
0
ENDBLK
0
BLOCK
2
PW10_2_M_217882
8
0
70
0
10
0.0000000
20
0.0000000
0
ENDBLK
0
BLOCK
2
PW10_6_M_217704
8
0
70
0
10
0.0000000
20
0.0000000
0
ENDBLK
0
BLOCK
2
SOT457_216207
8
0
70
0
10
0.0000000
20
0.0000000
0
ENDBLK
0
BLOCK
2
_R6354_216221
8
0
70
0
10
0.0000000
20
0.0000000
0
ENDBLK
0
BLOCK
2
C35
8
0
70
0
10
0.0000000
20
0.0000000
0
INSERT
8
0
2
RC0805_MINI_215430
10
0.0000000
20
0.0000000
41
1.0000000
42
1.0000000
43
1.0000000
50
0.0000000
0
ENDBLK
0
BLOCK
2
R28
8
0
70
0
10
0.0000000
20
0.0000000
0
INSERT
8
0
2
RC0805_MINI_215437
10
0.0000000
20
0.0000000
41
1.0000000
42
1.0000000
43
1.0000000
50
0.0000000
0
ENDBLK
0
BLOCK
2
C37
8
0
70
0
10
0.0000000
20
0.0000000
0
INSERT
8
0
2
RC0805_MINI_215444
10
0.0000000
20
0.0000000
41
1.0000000
42
1.0000000
43
1.0000000
50
0.0000000
0
ENDBLK
0
BLOCK
2
R3
8
0
70
0
10
0.0000000
20
0.0000000
0
INSERT
8
0
2
RC0805_MINI_215452
10
0.0000000
20
0.0000000
41
1.0000000
42
1.0000000
43
1.0000000
50
0.0000000
0
ENDBLK
0
BLOCK
2
R5
8
0
70
0
10
0.0000000
20
0.0000000
0
INSERT
8
0
2
RC0805_MINI_215463
10
0.0000000
20
0.0000000
41
1.0000000
42
1.0000000
43
1.0000000
50
0.0000000
0
ENDBLK
0
BLOCK
2
C8
8
0
70
0
10
0.0000000
20
0.0000000
0
INSERT
8
0
2
RC0805_MINI_215471
10
0.0000000
20
0.0000000
41
1.0000000
42
1.0000000
43
1.0000000
50
0.0000000
0
ENDBLK
0
BLOCK
2
R8
8
0
70
0
10
0.0000000
20
0.0000000
0
INSERT
8
0
2
RC0805_MINI_215478
10
0.0000000
20
0.0000000
41
1.0000000
42
1.0000000
43
1.0000000
50
0.0000000
0
ENDBLK
0
BLOCK
2
C20
8
0
70
0
10
0.0000000
20
0.0000000
0
INSERT
8
0
2
RC0805_MINI_215485
10
0.0000000
20
0.0000000
41
1.0000000
42
1.0000000
43
1.0000000
50
0.0000000
0
ENDBLK
0
BLOCK
2
R20
8
0
70
0
10
0.0000000
20
0.0000000
0
INSERT
8
0
2
RC0805_MINI_215492
10
0.0000000
20
0.0000000
41
1.0000000
42
1.0000000
43
1.0000000
50
0.0000000
0
ENDBLK
0
BLOCK
2
C30
8
0
70
0
10
0.0000000
20
0.0000000
0
INSERT
8
0
2
RC0805_MINI_215499
10
0.0000000
20
0.0000000
41
1.0000000
42
1.0000000
43
1.0000000
50
0.0000000
0
ENDBLK
0
BLOCK
2
C29
8
0
70
0
10
0.0000000
20
0.0000000
0
INSERT
8
0
2
RC0805_MINI_215506
10
0.0000000
20
0.0000000
41
1.0000000
42
1.0000000
43
1.0000000
50
0.0000000
0
ENDBLK
0
BLOCK
2
C17
8
0
70
0
10
0.0000000
20
0.0000000
0
INSERT
8
0
2
RC0805_MINI_215513
10
0.0000000
20
0.0000000
41
1.0000000
42
1.0000000
43
1.0000000
50
0.0000000
0
ENDBLK
0
BLOCK
2
VD5
8
0
70
0
10
0.0000000
20
0.0000000
0
INSERT
8
0
2
SOT457_215520
10
0.0000000
20
0.0000000
41
1.0000000
42
1.0000000
43
1.0000000
50
0.0000000
0
ENDBLK
0
BLOCK
2
R34
8
0
70
0
10
0.0000000
20
0.0000000
0
INSERT
8
0
2
RC0805_MINI_215534
10
0.0000000
20
0.0000000
41
1.0000000
42
1.0000000
43
1.0000000
50
0.0000000
0
ENDBLK
0
BLOCK
2
VD3
8
0
70
0
10
0.0000000
20
0.0000000
0
INSERT
8
0
2
SOT457_215542
10
0.0000000
20
0.0000000
41
1.0000000
42
1.0000000
43
1.0000000
50
0.0000000
0
ENDBLK
0
BLOCK
2
C15
8
0
70
0
10
0.0000000
20
0.0000000
0
INSERT
8
0
2
RC0805_MINI_215556
10
0.0000000
20
0.0000000
41
1.0000000
42
1.0000000
43
1.0000000
50
0.0000000
0
ENDBLK
0
BLOCK
2
L2
8
0
70
0
10
0.0000000
20
0.0000000
0
INSERT
8
0
2
RC0805_MINI_215564
10
0.0000000
20
0.0000000
41
1.0000000
42
1.0000000
43
1.0000000
50
0.0000000
0
ENDBLK
0
BLOCK
2
C12
8
0
70
0
10
0.0000000
20
0.0000000
0
INSERT
8
0
2
RC0805_MINI_215572
10
0.0000000
20
0.0000000
41
1.0000000
42
1.0000000
43
1.0000000
50
0.0000000
0
ENDBLK
0
BLOCK
2
C32
8
0
70
0
10
0.0000000
20
0.0000000
0
INSERT
8
0
2
RC0805_MINI_215579
10
0.0000000
20
0.0000000
41
1.0000000
42
1.0000000
43
1.0000000
50
0.0000000
0
ENDBLK
0
BLOCK
2
U9
8
0
70
0
10
0.0000000
20
0.0000000
0
INSERT
8
0
2
TRANS_PIN_215588
10
0.0000000
20
0.0000000
41
1.0000000
42
1.0000000
43
1.0000000
50
0.0000000
0
INSERT
8
0
2
1__2_27
10
2.8090551
20
0.5118110
41
1.0000000
42
1.0000000
43
1.0000000
50
270.0000000
0
ENDBLK
0
BLOCK
2
U2
8
0
70
0
10
0.0000000
20
0.0000000
0
INSERT
8
0
2
TRANS_PIN_215593
10
0.0000000
20
0.0000000
41
1.0000000
42
1.0000000
43
1.0000000
50
0.0000000
0
INSERT
8
0
2
1__2_25
10
2.8562992
20
0.4606299
41
1.0000000
42
1.0000000
43
1.0000000
50
15.0000000
0
ENDBLK
0
BLOCK
2
U5
8
0
70
0
10
0.0000000
20
0.0000000
0
INSERT
8
0
2
TRANS_PIN_215598
10
0.0000000
20
0.0000000
41
1.0000000
42
1.0000000
43
1.0000000
50
0.0000000
0
INSERT
8
0
2
1__2_26
10
2.9468504
20
0.6791339
41
1.0000000
42
1.0000000
43
1.0000000
50
15.0000000
0
ENDBLK
0
BLOCK
2
R30
8
0
70
0
10
0.0000000
20
0.0000000
0
INSERT
8
0
2
RC0805_MINI_215604
10
0.0000000
20
0.0000000
41
1.0000000
42
1.0000000
43
1.0000000
50
0.0000000
0
ENDBLK
0
BLOCK
2
R21
8
0
70
0
10
0.0000000
20
0.0000000
0
INSERT
8
0
2
RC0805_MINI_215611
10
0.0000000
20
0.0000000
41
1.0000000
42
1.0000000
43
1.0000000
50
0.0000000
0
ENDBLK
0
BLOCK
2
R25
8
0
70
0
10
0.0000000
20
0.0000000
0
INSERT
8
0
2
RC0805_MINI_215618
10
0.0000000
20
0.0000000
41
1.0000000
42
1.0000000
43
1.0000000
50
0.0000000
0
ENDBLK
0
BLOCK
2
R22
8
0
70
0
10
0.0000000
20
0.0000000
0
INSERT
8
0
2
RC0805_MINI_215627
10
0.0000000
20
0.0000000
41
1.0000000
42
1.0000000
43
1.0000000
50
0.0000000
0
ENDBLK
0
BLOCK
2
C33
8
0
70
0
10
0.0000000
20
0.0000000
0
INSERT
8
0
2
RC0805_MINI_215636
10
0.0000000
20
0.0000000
41
1.0000000
42
1.0000000
43
1.0000000
50
0.0000000
0
ENDBLK
0
BLOCK
2
R27
8
0
70
0
10
0.0000000
20
0.0000000
0
INSERT
8
0
2
RC0805_MINI_215643
10
0.0000000
20
0.0000000
41
1.0000000
42
1.0000000
43
1.0000000
50
0.0000000
0
ENDBLK
0
BLOCK
2
R23
8
0
70
0
10
0.0000000
20
0.0000000
0
INSERT
8
0
2
RC0805_MINI_215650
10
0.0000000
20
0.0000000
41
1.0000000
42
1.0000000
43
1.0000000
50
0.0000000
0
ENDBLK
0
BLOCK
2
C34
8
0
70
0
10
0.0000000
20
0.0000000
0
INSERT
8
0
2
RC0805_MINI_215657
10
0.0000000
20
0.0000000
41
1.0000000
42
1.0000000
43
1.0000000
50
0.0000000
0
ENDBLK
0
BLOCK
2
L4
8
0
70
0
10
0.0000000
20
0.0000000
0
INSERT
8
0
2
RC0805_MINI_215666
10
0.0000000
20
0.0000000
41
1.0000000
42
1.0000000
43
1.0000000
50
0.0000000
0
ENDBLK
0
BLOCK
2
VD8
8
0
70
0
10
0.0000000
20
0.0000000
0
INSERT
8
0
2
BAS21H_215673
10
0.0000000
20
0.0000000
41
1.0000000
42
1.0000000
43
1.0000000
50
0.0000000
0
ENDBLK
0
BLOCK
2
R1
8
0
70
0
10
0.0000000
20
0.0000000
0
INSERT
8
0
2
RC0805_MINI_215685
10
0.0000000
20
0.0000000
41
1.0000000
42
1.0000000
43
1.0000000
50
0.0000000
0
ENDBLK
0
BLOCK
2
C4
8
0
70
0
10
0.0000000
20
0.0000000
0
INSERT
8
0
2
RC0805_MINI_215692
10
0.0000000
20
0.0000000
41
1.0000000
42
1.0000000
43
1.0000000
50
0.0000000
0
ENDBLK
0
BLOCK
2
C3
8
0
70
0
10
0.0000000
20
0.0000000
0
INSERT
8
0
2
RC0805_MINI_215699
10
0.0000000
20
0.0000000
41
1.0000000
42
1.0000000
43
1.0000000
50
0.0000000
0
ENDBLK
0
BLOCK
2
C9
8
0
70
0
10
0.0000000
20
0.0000000
0
INSERT
8
0
2
RC0805_MINI_215706
10
0.0000000
20
0.0000000
41
1.0000000
42
1.0000000
43
1.0000000
50
0.0000000
0
ENDBLK
0
BLOCK
2
R9
8
0
70
0
10
0.0000000
20
0.0000000
0
INSERT
8
0
2
RC0805_MINI_215713
10
0.0000000
20
0.0000000
41
1.0000000
42
1.0000000
43
1.0000000
50
0.0000000
0
ENDBLK
0
BLOCK
2
R7
8
0
70
0
10
0.0000000
20
0.0000000
0
INSERT
8
0
2
RC0805_MINI_215720
10
0.0000000
20
0.0000000
41
1.0000000
42
1.0000000
43
1.0000000
50
0.0000000
0
ENDBLK
0
BLOCK
2
C6
8
0
70
0
10
0.0000000
20
0.0000000
0
INSERT
8
0
2
RC0805_MINI_215727
10
0.0000000
20
0.0000000
41
1.0000000
42
1.0000000
43
1.0000000
50
0.0000000
0
ENDBLK
0
BLOCK
2
R6
8
0
70
0
10
0.0000000
20
0.0000000
0
INSERT
8
0
2
RC0805_MINI_215734
10
0.0000000
20
0.0000000
41
1.0000000
42
1.0000000
43
1.0000000
50
0.0000000
0
ENDBLK
0
BLOCK
2
VD7
8
0
70
0
10
0.0000000
20
0.0000000
0
INSERT
8
0
2
SOT457_215741
10
0.0000000
20
0.0000000
41
1.0000000
42
1.0000000
43
1.0000000
50
0.0000000
0
ENDBLK
0
BLOCK
2
R17
8
0
70
0
10
0.0000000
20
0.0000000
0
INSERT
8
0
2
RC0805_MINI_215755
10
0.0000000
20
0.0000000
41
1.0000000
42
1.0000000
43
1.0000000
50
0.0000000
0
ENDBLK
0
BLOCK
2
C27
8
0
70
0
10
0.0000000
20
0.0000000
0
INSERT
8
0
2
RC0805_MINI_215762
10
0.0000000
20
0.0000000
41
1.0000000
42
1.0000000
43
1.0000000
50
0.0000000
0
ENDBLK
0
BLOCK
2
C24
8
0
70
0
10
0.0000000
20
0.0000000
0
INSERT
8
0
2
RC0805_MINI_215769
10
0.0000000
20
0.0000000
41
1.0000000
42
1.0000000
43
1.0000000
50
0.0000000
0
ENDBLK
0
BLOCK
2
C25
8
0
70
0
10
0.0000000
20
0.0000000
0
INSERT
8
0
2
RC0805_MINI_215776
10
0.0000000
20
0.0000000
41
1.0000000
42
1.0000000
43
1.0000000
50
0.0000000
0
ENDBLK
0
BLOCK
2
R15
8
0
70
0
10
0.0000000
20
0.0000000
0
INSERT
8
0
2
RC0805_MINI_215783
10
0.0000000
20
0.0000000
41
1.0000000
42
1.0000000
43
1.0000000
50
0.0000000
0
ENDBLK
0
BLOCK
2
L3
8
0
70
0
10
0.0000000
20
0.0000000
0
INSERT
8
0
2
RC0805_MINI_215790
10
0.0000000
20
0.0000000
41
1.0000000
42
1.0000000
43
1.0000000
50
0.0000000
0
ENDBLK
0
BLOCK
2
R12
8
0
70
0
10
0.0000000
20
0.0000000
0
INSERT
8
0
2
RC0805_MINI_215797
10
0.0000000
20
0.0000000
41
1.0000000
42
1.0000000
43
1.0000000
50
0.0000000
0
ENDBLK
0
BLOCK
2
C22
8
0
70
0
10
0.0000000
20
0.0000000
0
INSERT
8
0
2
RC0805_MINI_215804
10
0.0000000
20
0.0000000
41
1.0000000
42
1.0000000
43
1.0000000
50
0.0000000
0
ENDBLK
0
BLOCK
2
U6
8
0
70
0
10
0.0000000
20
0.0000000
0
INSERT
8
0
2
TRANS_PIN_215811
10
0.0000000
20
0.0000000
41
1.0000000
42
1.0000000
43
1.0000000
50
0.0000000
0
INSERT
8
0
2
1__2_1
10
2.7775591
20
0.5688976
41
1.0000000
42
1.0000000
43
1.0000000
50
195.0000000
0
ENDBLK
0
BLOCK
2
U7
8
0
70
0
10
0.0000000
20
0.0000000
0
INSERT
8
0
2
TRANS_PIN_215816
10
0.0000000
20
0.0000000
41
1.0000000
42
1.0000000
43
1.0000000
50
0.0000000
0
INSERT
8
0
2
1__2_6
10
2.8779528
20
0.9212598
41
1.0000000
42
1.0000000
43
1.0000000
50
90.0000000
0
ENDBLK
0
BLOCK
2
VT3
8
0
70
0
10
0.0000000
20
0.0000000
0
INSERT
8
0
2
SOT_23_EBC__215822
10
0.0000000
20
0.0000000
41
1.0000000
42
1.0000000
43
1.0000000
50
0.0000000
0
ENDBLK
0
BLOCK
2
C5
8
0
70
0
10
0.0000000
20
0.0000000
0
INSERT
8
0
2
RC0805_MINI_215835
10
0.0000000
20
0.0000000
41
1.0000000
42
1.0000000
43
1.0000000
50
0.0000000
0
ENDBLK
0
BLOCK
2
R4
8
0
70
0
10
0.0000000
20
0.0000000
0
INSERT
8
0
2
RC0805_MINI_215842
10
0.0000000
20
0.0000000
41
1.0000000
42
1.0000000
43
1.0000000
50
0.0000000
0
ENDBLK
0
BLOCK
2
C10
8
0
70
0
10
0.0000000
20
0.0000000
0
INSERT
8
0
2
RC0805_MINI_215850
10
0.0000000
20
0.0000000
41
1.0000000
42
1.0000000
43
1.0000000
50
0.0000000
0
ENDBLK
0
BLOCK
2
C1
8
0
70
0
10
0.0000000
20
0.0000000
0
INSERT
8
0
2
RC0805_MINI_215857
10
0.0000000
20
0.0000000
41
1.0000000
42
1.0000000
43
1.0000000
50
0.0000000
0
ENDBLK
0
BLOCK
2
C2
8
0
70
0
10
0.0000000
20
0.0000000
0
INSERT
8
0
2
RC0805_MINI_215864
10
0.0000000
20
0.0000000
41
1.0000000
42
1.0000000
43
1.0000000
50
0.0000000
0
ENDBLK
0
BLOCK
2
R24
8
0
70
0
10
0.0000000
20
0.0000000
0
INSERT
8
0
2
RC0805_MINI_215871
10
0.0000000
20
0.0000000
41
1.0000000
42
1.0000000
43
1.0000000
50
0.0000000
0
ENDBLK
0
BLOCK
2
R33
8
0
70
0
10
0.0000000
20
0.0000000
0
INSERT
8
0
2
RC0805_MINI_215880
10
0.0000000
20
0.0000000
41
1.0000000
42
1.0000000
43
1.0000000
50
0.0000000
0
ENDBLK
0
BLOCK
2
C19
8
0
70
0
10
0.0000000
20
0.0000000
0
INSERT
8
0
2
RC0805_MINI_215887
10
0.0000000
20
0.0000000
41
1.0000000
42
1.0000000
43
1.0000000
50
0.0000000
0
ENDBLK
0
BLOCK
2
R19
8
0
70
0
10
0.0000000
20
0.0000000
0
INSERT
8
0
2
RC0805_MINI_215894
10
0.0000000
20
0.0000000
41
1.0000000
42
1.0000000
43
1.0000000
50
0.0000000
0
ENDBLK
0
BLOCK
2
C18
8
0
70
0
10
0.0000000
20
0.0000000
0
INSERT
8
0
2
RC0805_MINI_215901
10
0.0000000
20
0.0000000
41
1.0000000
42
1.0000000
43
1.0000000
50
0.0000000
0
ENDBLK
0
BLOCK
2
C14
8
0
70
0
10
0.0000000
20
0.0000000
0
INSERT
8
0
2
RC0805_MINI_215908
10
0.0000000
20
0.0000000
41
1.0000000
42
1.0000000
43
1.0000000
50
0.0000000
0
ENDBLK
0
BLOCK
2
C13
8
0
70
0
10
0.0000000
20
0.0000000
0
INSERT
8
0
2
RC0805_MINI_215915
10
0.0000000
20
0.0000000
41
1.0000000
42
1.0000000
43
1.0000000
50
0.0000000
0
ENDBLK
0
BLOCK
2
VD4
8
0
70
0
10
0.0000000
20
0.0000000
0
INSERT
8
0
2
SOT457_215922
10
0.0000000
20
0.0000000
41
1.0000000
42
1.0000000
43
1.0000000
50
0.0000000
0
ENDBLK
0
BLOCK
2
C16
8
0
70
0
10
0.0000000
20
0.0000000
0
INSERT
8
0
2
RC0805_MINI_215936
10
0.0000000
20
0.0000000
41
1.0000000
42
1.0000000
43
1.0000000
50
0.0000000
0
ENDBLK
0
BLOCK
2
C28
8
0
70
0
10
0.0000000
20
0.0000000
0
INSERT
8
0
2
RC0805_MINI_215943
10
0.0000000
20
0.0000000
41
1.0000000
42
1.0000000
43
1.0000000
50
0.0000000
0
ENDBLK
0
BLOCK
2
C11
8
0
70
0
10
0.0000000
20
0.0000000
0
INSERT
8
0
2
RC0805_MINI_215950
10
0.0000000
20
0.0000000
41
1.0000000
42
1.0000000
43
1.0000000
50
0.0000000
0
ENDBLK
0
BLOCK
2
R11
8
0
70
0
10
0.0000000
20
0.0000000
0
INSERT
8
0
2
RC0805_MINI_215957
10
0.0000000
20
0.0000000
41
1.0000000
42
1.0000000
43
1.0000000
50
0.0000000
0
ENDBLK
0
BLOCK
2
U3
8
0
70
0
10
0.0000000
20
0.0000000
0
INSERT
8
0
2
TRANS_PIN_215964
10
0.0000000
20
0.0000000
41
1.0000000
42
1.0000000
43
1.0000000
50
0.0000000
0
INSERT
8
0
2
1__2_13
10
2.9960630
20
0.7677165
41
1.0000000
42
1.0000000
43
1.0000000
50
195.0000000
0
ENDBLK
0
BLOCK
2
R31
8
0
70
0
10
0.0000000
20
0.0000000
0
INSERT
8
0
2
RC0805_MINI_215969
10
0.0000000
20
0.0000000
41
1.0000000
42
1.0000000
43
1.0000000
50
0.0000000
0
ENDBLK
0
BLOCK
2
L1
8
0
70
0
10
0.0000000
20
0.0000000
0
INSERT
8
0
2
RC0805_MINI_215977
10
0.0000000
20
0.0000000
41
1.0000000
42
1.0000000
43
1.0000000
50
0.0000000
0
ENDBLK
0
BLOCK
2
R29
8
0
70
0
10
0.0000000
20
0.0000000
0
INSERT
8
0
2
RC0805_MINI_215984
10
0.0000000
20
0.0000000
41
1.0000000
42
1.0000000
43
1.0000000
50
0.0000000
0
ENDBLK
0
BLOCK
2
DA2
8
0
70
0
10
0.0000000
20
0.0000000
0
INSERT
8
0
2
SOT353_SC70_MO_203_SC_88_215991
10
0.0000000
20
0.0000000
41
1.0000000
42
1.0000000
43
1.0000000
50
0.0000000
0
ENDBLK
0
BLOCK
2
R26
8
0
70
0
10
0.0000000
20
0.0000000
0
INSERT
8
0
2
RC0805_MINI_216007
10
0.0000000
20
0.0000000
41
1.0000000
42
1.0000000
43
1.0000000
50
0.0000000
0
ENDBLK
0
BLOCK
2
C36
8
0
70
0
10
0.0000000
20
0.0000000
0
INSERT
8
0
2
RC0805_MINI_216014
10
0.0000000
20
0.0000000
41
1.0000000
42
1.0000000
43
1.0000000
50
0.0000000
0
ENDBLK
0
BLOCK
2
R10
8
0
70
0
10
0.0000000
20
0.0000000
0
INSERT
8
0
2
RC0805_MINI_216021
10
0.0000000
20
0.0000000
41
1.0000000
42
1.0000000
43
1.0000000
50
0.0000000
0
ENDBLK
0
BLOCK
2
C7
8
0
70
0
10
0.0000000
20
0.0000000
0
INSERT
8
0
2
RC0805_MINI_216028
10
0.0000000
20
0.0000000
41
1.0000000
42
1.0000000
43
1.0000000
50
0.0000000
0
ENDBLK
0
BLOCK
2
DA1
8
0
70
0
10
0.0000000
20
0.0000000
0
INSERT
8
0
2
SOT353_SC70_MO_203_SC_88_216036
10
0.0000000
20
0.0000000
41
1.0000000
42
1.0000000
43
1.0000000
50
0.0000000
0
ENDBLK
0
BLOCK
2
R2
8
0
70
0
10
0.0000000
20
0.0000000
0
INSERT
8
0
2
RC0805_MINI_216052
10
0.0000000
20
0.0000000
41
1.0000000
42
1.0000000
43
1.0000000
50
0.0000000
0
ENDBLK
0
BLOCK
2
VD6
8
0
70
0
10
0.0000000
20
0.0000000
0
INSERT
8
0
2
SOT457_216059
10
0.0000000
20
0.0000000
41
1.0000000
42
1.0000000
43
1.0000000
50
0.0000000
0
ENDBLK
0
BLOCK
2
R18
8
0
70
0
10
0.0000000
20
0.0000000
0
INSERT
8
0
2
RC0805_MINI_216073
10
0.0000000
20
0.0000000
41
1.0000000
42
1.0000000
43
1.0000000
50
0.0000000
0
ENDBLK
0
BLOCK
2
C26
8
0
70
0
10
0.0000000
20
0.0000000
0
INSERT
8
0
2
RC0805_MINI_216080
10
0.0000000
20
0.0000000
41
1.0000000
42
1.0000000
43
1.0000000
50
0.0000000
0
ENDBLK
0
BLOCK
2
C23
8
0
70
0
10
0.0000000
20
0.0000000
0
INSERT
8
0
2
RC0805_MINI_216087
10
0.0000000
20
0.0000000
41
1.0000000
42
1.0000000
43
1.0000000
50
0.0000000
0
ENDBLK
0
BLOCK
2
R14
8
0
70
0
10
0.0000000
20
0.0000000
0
INSERT
8
0
2
RC0805_MINI_216094
10
0.0000000
20
0.0000000
41
1.0000000
42
1.0000000
43
1.0000000
50
0.0000000
0
ENDBLK
0
BLOCK
2
R13
8
0
70
0
10
0.0000000
20
0.0000000
0
INSERT
8
0
2
RC0805_MINI_216101
10
0.0000000
20
0.0000000
41
1.0000000
42
1.0000000
43
1.0000000
50
0.0000000
0
ENDBLK
0
BLOCK
2
R16
8
0
70
0
10
0.0000000
20
0.0000000
0
INSERT
8
0
2
RC0805_MINI_216108
10
0.0000000
20
0.0000000
41
1.0000000
42
1.0000000
43
1.0000000
50
0.0000000
0
ENDBLK
0
BLOCK
2
VT1
8
0
70
0
10
0.0000000
20
0.0000000
0
INSERT
8
0
2
SOT363_216115
10
0.0000000
20
0.0000000
41
1.0000000
42
1.0000000
43
1.0000000
50
0.0000000
0
ENDBLK
0
BLOCK
2
U8
8
0
70
0
10
0.0000000
20
0.0000000
0
INSERT
8
0
2
TRANS_PIN_216125
10
0.0000000
20
0.0000000
41
1.0000000
42
1.0000000
43
1.0000000
50
0.0000000
0
INSERT
8
0
2
1__2_33
10
2.9685039
20
0.6200787
41
1.0000000
42
1.0000000
43
1.0000000
50
15.0000000
0
ENDBLK
0
BLOCK
2
U4
8
0
70
0
10
0.0000000
20
0.0000000
0
INSERT
8
0
2
TRANS_PIN_216130
10
0.0000000
20
0.0000000
41
1.0000000
42
1.0000000
43
1.0000000
50
0.0000000
0
INSERT
8
0
2
1__2_27
10
3.0374016
20
0.5787402
41
1.0000000
42
1.0000000
43
1.0000000
50
15.0000000
0
ENDBLK
0
BLOCK
2
VD1
8
0
70
0
10
0.0000000
20
0.0000000
0
INSERT
8
0
2
SOT457_216135
10
0.0000000
20
0.0000000
41
1.0000000
42
1.0000000
43
1.0000000
50
0.0000000
0
ENDBLK
0
BLOCK
2
C38
8
0
70
0
10
0.0000000
20
0.0000000
0
INSERT
8
0
2
RC0805_MINI_216149
10
0.0000000
20
0.0000000
41
1.0000000
42
1.0000000
43
1.0000000
50
0.0000000
0
ENDBLK
0
BLOCK
2
R32
8
0
70
0
10
0.0000000
20
0.0000000
0
INSERT
8
0
2
RC0805_MINI_216172
10
0.0000000
20
0.0000000
41
1.0000000
42
1.0000000
43
1.0000000
50
0.0000000
0
ENDBLK
0
BLOCK
2
C21
8
0
70
0
10
0.0000000
20
0.0000000
0
INSERT
8
0
2
RC0805_MINI_216179
10
0.0000000
20
0.0000000
41
1.0000000
42
1.0000000
43
1.0000000
50
0.0000000
0
ENDBLK
0
BLOCK
2
X2
8
0
70
0
10
0.0000000
20
0.0000000
0
INSERT
8
0
2
PW10_2_M_217882
10
0.0000000
20
0.0000000
41
1.0000000
42
1.0000000
43
1.0000000
50
0.0000000
0
INSERT
8
0
2
def52
10
3.5236220
20
0.5905512
41
1.0000000
42
1.0000000
43
1.0000000
50
0.0000000
0
INSERT
8
0
2
def38
10
3.5236220
20
0.4921260
41
1.0000000
42
1.0000000
43
1.0000000
50
0.0000000
0
ENDBLK
0
BLOCK
2
X1
8
0
70
0
10
0.0000000
20
0.0000000
0
INSERT
8
0
2
PW10_6_M_217704
10
0.0000000
20
0.0000000
41
1.0000000
42
1.0000000
43
1.0000000
50
0.0000000
0
INSERT
8
0
2
def2
10
3.5236220
20
1.0830709
41
1.0000000
42
1.0000000
43
1.0000000
50
0.0000000
0
INSERT
8
0
2
def5
10
3.5236220
20
1.1814961
41
1.0000000
42
1.0000000
43
1.0000000
50
0.0000000
0
INSERT
8
0
2
def22
10
3.5236220
20
0.7877953
41
1.0000000
42
1.0000000
43
1.0000000
50
0.0000000
0
INSERT
8
0
2
def53
10
3.5236220
20
0.8862205
41
1.0000000
42
1.0000000
43
1.0000000
50
0.0000000
0
INSERT
8
0
2
def29
10
3.5236220
20
1.2799213
41
1.0000000
42
1.0000000
43
1.0000000
50
0.0000000
0
INSERT
8
0
2
def10
10
3.5236220
20
0.9846457
41
1.0000000
42
1.0000000
43
1.0000000
50
0.0000000
0
ENDBLK
0
BLOCK
2
VD2
8
0
70
0
10
0.0000000
20
0.0000000
0
INSERT
8
0
2
SOT457_216207
10
0.0000000
20
0.0000000
41
1.0000000
42
1.0000000
43
1.0000000
50
0.0000000
0
ENDBLK
0
BLOCK
2
U1
8
0
70
0
10
0.0000000
20
0.0000000
0
INSERT
8
0
2
_R6354_216221
10
0.0000000
20
0.0000000
41
1.0000000
42
1.0000000
43
1.0000000
50
0.0000000
0
INSERT
8
0
2
E6788_11U16
10
1.2204724
20
0.5722795
41
1.0000000
42
1.0000000
43
1.0000000
50
300.0000000
0
INSERT
8
0
2
E6788_11U14
10
1.0629925
20
0.5722791
41
1.0000000
42
1.0000000
43
1.0000000
50
240.0000000
0
INSERT
8
0
2
E6788_11U15
10
1.1417327
20
0.5511811
41
1.0000000
42
1.0000000
43
1.0000000
50
270.0000000
0
INSERT
8
0
2
E6788_11U19
10
1.2781142
20
0.7874016
41
1.0000000
42
1.0000000
43
1.0000000
50
120.0000000
0
INSERT
8
0
2
E6788_11U12
10
1.1417319
20
0.8661417
41
1.0000000
42
1.0000000
43
1.0000000
50
90.0000000
0
INSERT
8
0
2
E6788_11U20
10
1.2204720
20
0.8450437
41
1.0000000
42
1.0000000
43
1.0000000
50
60.0000000
0
INSERT
8
0
2
E6788_11U8
10
1.0053504
20
0.6299213
41
1.0000000
42
1.0000000
43
1.0000000
50
210.0000000
0
INSERT
8
0
2
E6788_11U18
10
1.2992126
20
0.7086618
41
1.0000000
42
1.0000000
43
1.0000000
50
0.0000000
0
INSERT
8
0
2
E6788_11U17
10
1.2781146
20
0.6299217
41
1.0000000
42
1.0000000
43
1.0000000
50
330.0000000
0
INSERT
8
0
2
E6788_11U7
10
0.9842520
20
0.7086610
41
1.0000000
42
1.0000000
43
1.0000000
50
180.0000000
0
INSERT
8
0
2
E6788_11U32
10
1.0053500
20
0.7874012
41
1.0000000
42
1.0000000
43
1.0000000
50
150.0000000
0
ENDBLK
0
ENDSEC
0
SECTION
2
ENTITIES
0
INSERT
8
0
2
C35
10
0.0000000
20
0.0000000
41
1.0000000
42
1.0000000
43
1.0000000
50
0.0000000
0
INSERT
8
0
2
R28
10
0.0000000
20
0.0000000
41
1.0000000
42
1.0000000
43
1.0000000
50
0.0000000
0
INSERT
8
0
2
C37
10
0.0000000
20
0.0000000
41
1.0000000
42
1.0000000
43
1.0000000
50
0.0000000
0
INSERT
8
0
2
mini2
10
0.7086614
20
1.0492126
41
1.0000000
42
1.0000000
43
1.0000000
50
0.0000000
0
INSERT
8
0
2
R3
10
0.0000000
20
0.0000000
41
1.0000000
42
1.0000000
43
1.0000000
50
0.0000000
0
INSERT
8
0
2
mini56
10
1.0629921
20
0.4488189
41
1.0000000
42
1.0000000
43
1.0000000
50
180.0000000
0
INSERT
8
0
2
mini36
10
0.9212598
20
0.4744094
41
1.0000000
42
1.0000000
43
1.0000000
50
180.0000000
0
INSERT
8
0
2
mini29
10
0.9527559
20
0.9389764
41
1.0000000
42
1.0000000
43
1.0000000
50
0.0000000
0
INSERT
8
0
2
mini22
10
1.1141732
20
1.1023622
41
1.0000000
42
1.0000000
43
1.0000000
50
0.0000000
0
INSERT
8
0
2
R5
10
0.0000000
20
0.0000000
41
1.0000000
42
1.0000000
43
1.0000000
50
0.0000000
0
INSERT
8
0
2
mini40
10
1.2736220
20
0.4429134
41
1.0000000
42
1.0000000
43
1.0000000
50
0.0000000
0
INSERT
8
0
2
C8
10
0.0000000
20
0.0000000
41
1.0000000
42
1.0000000
43
1.0000000
50
0.0000000
0
INSERT
8
0
2
R8
10
0.0000000
20
0.0000000
41
1.0000000
42
1.0000000
43
1.0000000
50
0.0000000
0
INSERT
8
0
2
C20
10
0.0000000
20
0.0000000
41
1.0000000
42
1.0000000
43
1.0000000
50
0.0000000
0
INSERT
8
0
2
R20
10
0.0000000
20
0.0000000
41
1.0000000
42
1.0000000
43
1.0000000
50
0.0000000
0
INSERT
8
0
2
C30
10
0.0000000
20
0.0000000
41
1.0000000
42
1.0000000
43
1.0000000
50
0.0000000
0
INSERT
8
0
2
C29
10
0.0000000
20
0.0000000
41
1.0000000
42
1.0000000
43
1.0000000
50
0.0000000
0
INSERT
8
0
2
C17
10
0.0000000
20
0.0000000
41
1.0000000
42
1.0000000
43
1.0000000
50
0.0000000
0
INSERT
8
0
2
VD5
10
0.0000000
20
0.0000000
41
1.0000000
42
1.0000000
43
1.0000000
50
0.0000000
0
INSERT
8
0
2
R34
10
0.0000000
20
0.0000000
41
1.0000000
42
1.0000000
43
1.0000000
50
0.0000000
0
INSERT
8
0
2
mini40
10
2.1968504
20
0.4547244
41
1.0000000
42
1.0000000
43
1.0000000
50
0.0000000
0
INSERT
8
0
2
VD3
10
0.0000000
20
0.0000000
41
1.0000000
42
1.0000000
43
1.0000000
50
0.0000000
0
INSERT
8
0
2
C15
10
0.0000000
20
0.0000000
41
1.0000000
42
1.0000000
43
1.0000000
50
0.0000000
0
INSERT
8
0
2
mini36
10
2.4625984
20
0.5374016
41
1.0000000
42
1.0000000
43
1.0000000
50
0.0000000
0
INSERT
8
0
2
L2
10
0.0000000
20
0.0000000
41
1.0000000
42
1.0000000
43
1.0000000
50
0.0000000
0
INSERT
8
0
2
mini27
10
2.6062992
20
0.4704724
41
1.0000000
42
1.0000000
43
1.0000000
50
0.0000000
0
INSERT
8
0
2
C12
10
0.0000000
20
0.0000000
41
1.0000000
42
1.0000000
43
1.0000000
50
0.0000000
0
INSERT
8
0
2
C32
10
0.0000000
20
0.0000000
41
1.0000000
42
1.0000000
43
1.0000000
50
0.0000000
0
INSERT
8
0
2
mini2
10
2.5649606
20
0.7342520
41
1.0000000
42
1.0000000
43
1.0000000
50
0.0000000
0
INSERT
8
0
2
mini22
10
2.5551181
20
0.8090551
41
1.0000000
42
1.0000000
43
1.0000000
50
0.0000000
0
INSERT
8
0
2
U9
10
0.0000000
20
0.0000000
41
1.0000000
42
1.0000000
43
1.0000000
50
0.0000000
0
INSERT
8
0
2
U2
10
0.0000000
20
0.0000000
41
1.0000000
42
1.0000000
43
1.0000000
50
0.0000000
0
INSERT
8
0
2
U5
10
0.0000000
20
0.0000000
41
1.0000000
42
1.0000000
43
1.0000000
50
0.0000000
0
INSERT
8
0
2
mini29
10
2.9389764
20
0.8661417
41
1.0000000
42
1.0000000
43
1.0000000
50
0.0000000
0
INSERT
8
0
2
R30
10
0.0000000
20
0.0000000
41
1.0000000
42
1.0000000
43
1.0000000
50
0.0000000
0
INSERT
8
0
2
R21
10
0.0000000
20
0.0000000
41
1.0000000
42
1.0000000
43
1.0000000
50
0.0000000
0
INSERT
8
0
2
R25
10
0.0000000
20
0.0000000
41
1.0000000
42
1.0000000
43
1.0000000
50
0.0000000
0
INSERT
8
0
2
mini22
10
3.0590551
20
0.5137795
41
1.0000000
42
1.0000000
43
1.0000000
50
0.0000000
0
INSERT
8
0
2
mini4
10
3.0511811
20
0.8326772
41
1.0000000
42
1.0000000
43
1.0000000
50
0.0000000
0
INSERT
8
0
2
R22
10
0.0000000
20
0.0000000
41
1.0000000
42
1.0000000
43
1.0000000
50
0.0000000
0
INSERT
8
0
2
mini10
10
3.1653543
20
0.8523622
41
1.0000000
42
1.0000000
43
1.0000000
50
0.0000000
0
INSERT
8
0
2
mini2
10
3.2598425
20
0.8169291
41
1.0000000
42
1.0000000
43
1.0000000
50
0.0000000
0
INSERT
8
0
2
C33
10
0.0000000
20
0.0000000
41
1.0000000
42
1.0000000
43
1.0000000
50
0.0000000
0
INSERT
8
0
2
R27
10
0.0000000
20
0.0000000
41
1.0000000
42
1.0000000
43
1.0000000
50
0.0000000
0
INSERT
8
0
2
R23
10
0.0000000
20
0.0000000
41
1.0000000
42
1.0000000
43
1.0000000
50
0.0000000
0
INSERT
8
0
2
C34
10
0.0000000
20
0.0000000
41
1.0000000
42
1.0000000
43
1.0000000
50
0.0000000
0
INSERT
8
0
2
mini4
10
3.3759843
20
0.9291339
41
1.0000000
42
1.0000000
43
1.0000000
50
0.0000000
0
INSERT
8
0
2
M3
10
0.7677165
20
0.6299213
41
1.0000000
42
1.0000000
43
1.0000000
50
180.0000000
0
INSERT
8
0
2
L4
10
0.0000000
20
0.0000000
41
1.0000000
42
1.0000000
43
1.0000000
50
0.0000000
0
INSERT
8
0
2
VD8
10
0.0000000
20
0.0000000
41
1.0000000
42
1.0000000
43
1.0000000
50
0.0000000
0
INSERT
8
0
2
R1
10
0.0000000
20
0.0000000
41
1.0000000
42
1.0000000
43
1.0000000
50
0.0000000
0
INSERT
8
0
2
C4
10
0.0000000
20
0.0000000
41
1.0000000
42
1.0000000
43
1.0000000
50
0.0000000
0
INSERT
8
0
2
C3
10
0.0000000
20
0.0000000
41
1.0000000
42
1.0000000
43
1.0000000
50
0.0000000
0
INSERT
8
0
2
C9
10
0.0000000
20
0.0000000
41
1.0000000
42
1.0000000
43
1.0000000
50
0.0000000
0
INSERT
8
0
2
R9
10
0.0000000
20
0.0000000
41
1.0000000
42
1.0000000
43
1.0000000
50
0.0000000
0
INSERT
8
0
2
R7
10
0.0000000
20
0.0000000
41
1.0000000
42
1.0000000
43
1.0000000
50
0.0000000
0
INSERT
8
0
2
C6
10
0.0000000
20
0.0000000
41
1.0000000
42
1.0000000
43
1.0000000
50
0.0000000
0
INSERT
8
0
2
R6
10
0.0000000
20
0.0000000
41
1.0000000
42
1.0000000
43
1.0000000
50
0.0000000
0
INSERT
8
0
2
VD7
10
0.0000000
20
0.0000000
41
1.0000000
42
1.0000000
43
1.0000000
50
0.0000000
0
INSERT
8
0
2
R17
10
0.0000000
20
0.0000000
41
1.0000000
42
1.0000000
43
1.0000000
50
0.0000000
0
INSERT
8
0
2
C27
10
0.0000000
20
0.0000000
41
1.0000000
42
1.0000000
43
1.0000000
50
0.0000000
0
INSERT
8
0
2
C24
10
0.0000000
20
0.0000000
41
1.0000000
42
1.0000000
43
1.0000000
50
0.0000000
0
INSERT
8
0
2
C25
10
0.0000000
20
0.0000000
41
1.0000000
42
1.0000000
43
1.0000000
50
0.0000000
0
INSERT
8
0
2
R15
10
0.0000000
20
0.0000000
41
1.0000000
42
1.0000000
43
1.0000000
50
0.0000000
0
INSERT
8
0
2
L3
10
0.0000000
20
0.0000000
41
1.0000000
42
1.0000000
43
1.0000000
50
0.0000000
0
INSERT
8
0
2
R12
10
0.0000000
20
0.0000000
41
1.0000000
42
1.0000000
43
1.0000000
50
0.0000000
0
INSERT
8
0
2
C22
10
0.0000000
20
0.0000000
41
1.0000000
42
1.0000000
43
1.0000000
50
0.0000000
0
INSERT
8
0
2
U6
10
0.0000000
20
0.0000000
41
1.0000000
42
1.0000000
43
1.0000000
50
0.0000000
0
INSERT
8
0
2
U7
10
0.0000000
20
0.0000000
41
1.0000000
42
1.0000000
43
1.0000000
50
0.0000000
0
INSERT
8
0
2
mini4
10
3.1279528
20
0.9133858
41
1.0000000
42
1.0000000
43
1.0000000
50
0.0000000
0
INSERT
8
0
2
VT3
10
0.0000000
20
0.0000000
41
1.0000000
42
1.0000000
43
1.0000000
50
0.0000000
0
INSERT
8
0
2
C5
10
0.0000000
20
0.0000000
41
1.0000000
42
1.0000000
43
1.0000000
50
0.0000000
0
INSERT
8
0
2
R4
10
0.0000000
20
0.0000000
41
1.0000000
42
1.0000000
43
1.0000000
50
0.0000000
0
INSERT
8
0
2
M3
10
1.1417323
20
0.7086614
41
1.0000000
42
1.0000000
43
1.0000000
50
180.0000000
0
INSERT
8
0
2
C10
10
0.0000000
20
0.0000000
41
1.0000000
42
1.0000000
43
1.0000000
50
0.0000000
0
INSERT
8
0
2
C1
10
0.0000000
20
0.0000000
41
1.0000000
42
1.0000000
43
1.0000000
50
0.0000000
0
INSERT
8
0
2
C2
10
0.0000000
20
0.0000000
41
1.0000000
42
1.0000000
43
1.0000000
50
0.0000000
0
INSERT
8
0
2
R24
10
0.0000000
20
0.0000000
41
1.0000000
42
1.0000000
43
1.0000000
50
0.0000000
0
INSERT
8
0
2
mini10
10
0.8917323
20
1.1673228
41
1.0000000
42
1.0000000
43
1.0000000
50
270.0000000
0
INSERT
8
0
2
mini56
10
2.4094488
20
0.5374016
41
1.0000000
42
1.0000000
43
1.0000000
50
0.0000000
0
INSERT
8
0
2
R33
10
0.0000000
20
0.0000000
41
1.0000000
42
1.0000000
43
1.0000000
50
0.0000000
0
INSERT
8
0
2
C19
10
0.0000000
20
0.0000000
41
1.0000000
42
1.0000000
43
1.0000000
50
0.0000000
0
INSERT
8
0
2
R19
10
0.0000000
20
0.0000000
41
1.0000000
42
1.0000000
43
1.0000000
50
0.0000000
0
INSERT
8
0
2
C18
10
0.0000000
20
0.0000000
41
1.0000000
42
1.0000000
43
1.0000000
50
0.0000000
0
INSERT
8
0
2
C14
10
0.0000000
20
0.0000000
41
1.0000000
42
1.0000000
43
1.0000000
50
0.0000000
0
INSERT
8
0
2
C13
10
0.0000000
20
0.0000000
41
1.0000000
42
1.0000000
43
1.0000000
50
0.0000000
0
INSERT
8
0
2
VD4
10
0.0000000
20
0.0000000
41
1.0000000
42
1.0000000
43
1.0000000
50
0.0000000
0
INSERT
8
0
2
C16
10
0.0000000
20
0.0000000
41
1.0000000
42
1.0000000
43
1.0000000
50
0.0000000
0
INSERT
8
0
2
C28
10
0.0000000
20
0.0000000
41
1.0000000
42
1.0000000
43
1.0000000
50
0.0000000
0
INSERT
8
0
2
C11
10
0.0000000
20
0.0000000
41
1.0000000
42
1.0000000
43
1.0000000
50
0.0000000
0
INSERT
8
0
2
R11
10
0.0000000
20
0.0000000
41
1.0000000
42
1.0000000
43
1.0000000
50
0.0000000
0
INSERT
8
0
2
U3
10
0.0000000
20
0.0000000
41
1.0000000
42
1.0000000
43
1.0000000
50
0.0000000
0
INSERT
8
0
2
R31
10
0.0000000
20
0.0000000
41
1.0000000
42
1.0000000
43
1.0000000
50
0.0000000
0
INSERT
8
0
2
mini10
10
3.3149606
20
0.8523622
41
1.0000000
42
1.0000000
43
1.0000000
50
0.0000000
0
INSERT
8
0
2
L1
10
0.0000000
20
0.0000000
41
1.0000000
42
1.0000000
43
1.0000000
50
0.0000000
0
INSERT
8
0
2
R29
10
0.0000000
20
0.0000000
41
1.0000000
42
1.0000000
43
1.0000000
50
0.0000000
0
INSERT
8
0
2
DA2
10
0.0000000
20
0.0000000
41
1.0000000
42
1.0000000
43
1.0000000
50
0.0000000
0
INSERT
8
0
2
R26
10
0.0000000
20
0.0000000
41
1.0000000
42
1.0000000
43
1.0000000
50
0.0000000
0
INSERT
8
0
2
C36
10
0.0000000
20
0.0000000
41
1.0000000
42
1.0000000
43
1.0000000
50
0.0000000
0
INSERT
8
0
2
R10
10
0.0000000
20
0.0000000
41
1.0000000
42
1.0000000
43
1.0000000
50
0.0000000
0
INSERT
8
0
2
C7
10
0.0000000
20
0.0000000
41
1.0000000
42
1.0000000
43
1.0000000
50
0.0000000
0
INSERT
8
0
2
mini2
10
0.9094488
20
0.8897638
41
1.0000000
42
1.0000000
43
1.0000000
50
270.0000000
0
INSERT
8
0
2
DA1
10
0.0000000
20
0.0000000
41
1.0000000
42
1.0000000
43
1.0000000
50
0.0000000
0
INSERT
8
0
2
R2
10
0.0000000
20
0.0000000
41
1.0000000
42
1.0000000
43
1.0000000
50
0.0000000
0
INSERT
8
0
2
VD6
10
0.0000000
20
0.0000000
41
1.0000000
42
1.0000000
43
1.0000000
50
0.0000000
0
INSERT
8
0
2
R18
10
0.0000000
20
0.0000000
41
1.0000000
42
1.0000000
43
1.0000000
50
0.0000000
0
INSERT
8
0
2
C26
10
0.0000000
20
0.0000000
41
1.0000000
42
1.0000000
43
1.0000000
50
0.0000000
0
INSERT
8
0
2
C23
10
0.0000000
20
0.0000000
41
1.0000000
42
1.0000000
43
1.0000000
50
0.0000000
0
INSERT
8
0
2
R14
10
0.0000000
20
0.0000000
41
1.0000000
42
1.0000000
43
1.0000000
50
0.0000000
0
INSERT
8
0
2
R13
10
0.0000000
20
0.0000000
41
1.0000000
42
1.0000000
43
1.0000000
50
0.0000000
0
INSERT
8
0
2
R16
10
0.0000000
20
0.0000000
41
1.0000000
42
1.0000000
43
1.0000000
50
0.0000000
0
INSERT
8
0
2
VT1
10
0.0000000
20
0.0000000
41
1.0000000
42
1.0000000
43
1.0000000
50
0.0000000
0
INSERT
8
0
2
U8
10
0.0000000
20
0.0000000
41
1.0000000
42
1.0000000
43
1.0000000
50
0.0000000
0
INSERT
8
0
2
U4
10
0.0000000
20
0.0000000
41
1.0000000
42
1.0000000
43
1.0000000
50
0.0000000
0
INSERT
8
0
2
VD1
10
0.0000000
20
0.0000000
41
1.0000000
42
1.0000000
43
1.0000000
50
0.0000000
0
INSERT
8
0
2
C38
10
0.0000000
20
0.0000000
41
1.0000000
42
1.0000000
43
1.0000000
50
0.0000000
0
INSERT
8
0
2
R32
10
0.0000000
20
0.0000000
41
1.0000000
42
1.0000000
43
1.0000000
50
0.0000000
0
INSERT
8
0
2
C21
10
0.0000000
20
0.0000000
41
1.0000000
42
1.0000000
43
1.0000000
50
0.0000000
0
INSERT
8
0
2
X2
10
0.0000000
20
0.0000000
41
1.0000000
42
1.0000000
43
1.0000000
50
0.0000000
0
INSERT
8
0
2
X1
10
0.0000000
20
0.0000000
41
1.0000000
42
1.0000000
43
1.0000000
50
0.0000000
0
INSERT
8
0
2
VD2
10
0.0000000
20
0.0000000
41
1.0000000
42
1.0000000
43
1.0000000
50
0.0000000
0
INSERT
8
0
2
U1
10
0.0000000
20
0.0000000
41
1.0000000
42
1.0000000
43
1.0000000
50
0.0000000
0
INSERT
8
Board
2
UNIT_DISC
10
1.3188976
20
1.1417323
41
0.0100000
42
0.0100000
43
0.0100000
50
0.0000000
0
INSERT
8
Board
2
UNIT_DISC
10
1.3582677
20
1.1023622
41
0.0100000
42
0.0100000
43
0.0100000
50
0.0000000
0
POLYLINE
8
Board
6
CONTINUOUS
66
1
70
0
40
0.0100000
41
0.0100000
0
VERTEX
8
Board
10
1.3188976
20
1.1417323
42
0.4142136
0
VERTEX
8
Board
10
1.3582677
20
1.1023622
42
0.4142136
0
SEQEND
0
INSERT
8
Board
2
UNIT_DISC
10
0.6299213
20
1.2204724
41
0.0100000
42
0.0100000
43
0.0100000
50
0.0000000
0
INSERT
8
Board
2
UNIT_DISC
10
0.6299213
20
0.3937008
41
0.0100000
42
0.0100000
43
0.0100000
50
0.0000000
0
POLYLINE
8
Board
6
CONTINUOUS
66
1
70
0
40
0.0100000
41
0.0100000
0
VERTEX
8
Board
10
0.6299213
20
1.2204724
42
0.0000000
0
VERTEX
8
Board
10
0.6299213
20
0.3937008
42
0.0000000
0
SEQEND
0
INSERT
8
Board
2
UNIT_DISC
10
1.3188976
20
1.2204724
41
0.0100000
42
0.0100000
43
0.0100000
50
0.0000000
0
INSERT
8
Board
2
UNIT_DISC
10
1.3188976
20
1.1417323
41
0.0100000
42
0.0100000
43
0.0100000
50
0.0000000
0
POLYLINE
8
Board
6
CONTINUOUS
66
1
70
0
40
0.0100000
41
0.0100000
0
VERTEX
8
Board
10
1.3188976
20
1.2204724
42
0.0000000
0
VERTEX
8
Board
10
1.3188976
20
1.1417323
42
0.0000000
0
SEQEND
0
INSERT
8
Board
2
UNIT_DISC
10
3.6614173
20
0.3937008
41
0.0100000
42
0.0100000
43
0.0100000
50
0.0000000
0
INSERT
8
Board
2
UNIT_DISC
10
3.6614173
20
1.3779528
41
0.0100000
42
0.0100000
43
0.0100000
50
0.0000000
0
POLYLINE
8
Board
6
CONTINUOUS
66
1
70
0
40
0.0100000
41
0.0100000
0
VERTEX
8
Board
10
3.6614173
20
0.3937008
42
0.0000000
0
VERTEX
8
Board
10
3.6614173
20
1.3779528
42
0.0000000
0
SEQEND
0
INSERT
8
Board
2
UNIT_DISC
10
0.6299213
20
1.2204724
41
0.0100000
42
0.0100000
43
0.0100000
50
0.0000000
0
INSERT
8
Board
2
UNIT_DISC
10
1.3188976
20
1.2204724
41
0.0100000
42
0.0100000
43
0.0100000
50
0.0000000
0
POLYLINE
8
Board
6
CONTINUOUS
66
1
70
0
40
0.0100000
41
0.0100000
0
VERTEX
8
Board
10
0.6299213
20
1.2204724
42
0.0000000
0
VERTEX
8
Board
10
1.3188976
20
1.2204724
42
0.0000000
0
SEQEND
0
INSERT
8
Board
2
UNIT_DISC
10
1.3582677
20
1.1023622
41
0.0100000
42
0.0100000
43
0.0100000
50
0.0000000
0
INSERT
8
Board
2
UNIT_DISC
10
1.7887402
20
1.1023622
41
0.0100000
42
0.0100000
43
0.0100000
50
0.0000000
0
POLYLINE
8
Board
6
CONTINUOUS
66
1
70
0
40
0.0100000
41
0.0100000
0
VERTEX
8
Board
10
1.3582677
20
1.1023622
42
0.0000000
0
VERTEX
8
Board
10
1.7887402
20
1.1023622
42
0.0000000
0
SEQEND
0
INSERT
8
Board
2
UNIT_DISC
10
3.6614173
20
1.3779528
41
0.0100000
42
0.0100000
43
0.0100000
50
0.0000000
0
INSERT
8
Board
2
UNIT_DISC
10
3.2096850
20
1.3779528
41
0.0100000
42
0.0100000
43
0.0100000
50
0.0000000
0
POLYLINE
8
Board
6
CONTINUOUS
66
1
70
0
40
0.0100000
41
0.0100000
0
VERTEX
8
Board
10
3.6614173
20
1.3779528
42
0.0000000
0
VERTEX
8
Board
10
3.2096850
20
1.3779528
42
0.0000000
0
SEQEND
0
INSERT
8
Board
2
UNIT_DISC
10
1.7887575
20
1.1018063
41
0.0100000
42
0.0100000
43
0.0100000
50
0.0000000
0
INSERT
8
Board
2
UNIT_DISC
10
3.2096996
20
1.3780094
41
0.0100000
42
0.0100000
43
0.0100000
50
0.0000000
0
POLYLINE
8
Board
6
CONTINUOUS
66
1
70
0
40
0.0100000
41
0.0100000
0
VERTEX
8
Board
10
1.7887575
20
1.1018063
42
0.3639702
0
VERTEX
8
Board
10
3.2096996
20
1.3780094
42
0.3639702
0
SEQEND
0
INSERT
8
Board
2
UNIT_DISC
10
0.6299213
20
0.3937008
41
0.0100000
42
0.0100000
43
0.0100000
50
0.0000000
0
INSERT
8
Board
2
UNIT_DISC
10
3.6614173
20
0.3937008
41
0.0100000
42
0.0100000
43
0.0100000
50
0.0000000
0
POLYLINE
8
Board
6
CONTINUOUS
66
1
70
0
40
0.0100000
41
0.0100000
0
VERTEX
8
Board
10
0.6299213
20
0.3937008
42
0.0000000
0
VERTEX
8
Board
10
3.6614173
20
0.3937008
42
0.0000000
0
SEQEND
0
ENDSEC
0
EOF
