M48
;FILE_FORMAT=2:2
INCH,TZ
T01C0.016
T02C0.030
T03C0.031
T04C0.043
T05C0.126
%
;TYPE=PLATED
T01
X+38582Y+19645
X+36515Y+21338
X+37007Y+22755
X+38110Y+26417
X+37618Y+29094
X+37145Y+30708
X+40767Y+14586
X+41614Y+14311
X+40157Y+21220
X+41358Y+22755
X+40314Y+25669
X+40748Y+26397
X+39389Y+29350
X+41535Y+28385
X+41200Y+29685
X+41673Y+27598
X+43602Y+18937
X+44468Y+21830
X+44192Y+21417
X+37618Y+30118
X+41614Y+14842
X+41574Y+30019
X+43070Y+26850
X+42086Y+16082
X+42106Y+28366
X+45078Y+29586
Y+30019
;TYPE=PLATED
T02
X+34881Y+31456
Y+33425
X+44523Y+31358
X+42523
X+44208Y+28169
X+42208
X+40251
X+38251
X+40842Y+31377
X+38842
X+35275Y+16771
X+38275
X+35279Y+18838
X+37279
X+35279Y+17854
X+37279
X+38007Y+14704
X+36007
;TYPE=PLATED
T03
X+41023Y+19114
X+40039Y+20098
X+39055Y+19114
;TYPE=PLATED
T04
X+32736Y+15787
Y+16771
Y+14803
X+41496Y+33681
X+42480
X+32696Y+26413
Y+25429
Y+29366
Y+28381
Y+24444
Y+27397
X+37716Y+33681
X+38700
X+34700Y+36102
X+33716
X+37653
X+36669
X+32732
X+35685
;TYPE=NON_PLATED
T05
X+44488Y+35826
T00
M30
