%FSLAX25Y25*%
%MOIN*%
G70*
G01*
G75*
G04 Layer_Color=65535*
%ADD10C,0.01000*%
G04:AMPARAMS|DCode=11|XSize=31.5mil|YSize=98.43mil|CornerRadius=0mil|HoleSize=0mil|Usage=FLASHONLY|Rotation=45.000|XOffset=0mil|YOffset=0mil|HoleType=Round|Shape=Rectangle|*
%AMROTATEDRECTD11*
4,1,4,0.02366,-0.04593,-0.04593,0.02366,-0.02366,0.04593,0.04593,-0.02366,0.02366,-0.04593,0.0*
%
%ADD11ROTATEDRECTD11*%

G04:AMPARAMS|DCode=12|XSize=31.5mil|YSize=70.87mil|CornerRadius=0mil|HoleSize=0mil|Usage=FLASHONLY|Rotation=45.000|XOffset=0mil|YOffset=0mil|HoleType=Round|Shape=Rectangle|*
%AMROTATEDRECTD12*
4,1,4,0.01392,-0.03619,-0.03619,0.01392,-0.01392,0.03619,0.03619,-0.01392,0.01392,-0.03619,0.0*
%
%ADD12ROTATEDRECTD12*%

G04:AMPARAMS|DCode=13|XSize=86.61mil|YSize=118.11mil|CornerRadius=0mil|HoleSize=0mil|Usage=FLASHONLY|Rotation=45.000|XOffset=0mil|YOffset=0mil|HoleType=Round|Shape=Rectangle|*
%AMROTATEDRECTD13*
4,1,4,0.01114,-0.07238,-0.07238,0.01114,-0.01114,0.07238,0.07238,-0.01114,0.01114,-0.07238,0.0*
%
%ADD13ROTATEDRECTD13*%

%ADD14R,0.07874X0.06299*%
%ADD15R,0.03937X0.05512*%
G04:AMPARAMS|DCode=16|XSize=70.87mil|YSize=47.24mil|CornerRadius=0mil|HoleSize=0mil|Usage=FLASHONLY|Rotation=315.000|XOffset=0mil|YOffset=0mil|HoleType=Round|Shape=Rectangle|*
%AMROTATEDRECTD16*
4,1,4,-0.04176,0.00835,-0.00835,0.04176,0.04176,-0.00835,0.00835,-0.04176,-0.04176,0.00835,0.0*
%
%ADD16ROTATEDRECTD16*%

%ADD17R,0.04528X0.09449*%
G04:AMPARAMS|DCode=18|XSize=55.12mil|YSize=39.37mil|CornerRadius=0mil|HoleSize=0mil|Usage=FLASHONLY|Rotation=135.000|XOffset=0mil|YOffset=0mil|HoleType=Round|Shape=Rectangle|*
%AMROTATEDRECTD18*
4,1,4,0.03341,-0.00557,0.00557,-0.03341,-0.03341,0.00557,-0.00557,0.03341,0.03341,-0.00557,0.0*
%
%ADD18ROTATEDRECTD18*%

%ADD19R,0.05512X0.03937*%
%ADD20R,0.09449X0.04528*%
%ADD21C,0.01969*%
%ADD22C,0.03937*%
%ADD23C,0.07087*%
%ADD24C,0.00984*%
%ADD25C,0.02953*%
%ADD26C,0.07087*%
%ADD27C,0.31496*%
%ADD28C,0.05315*%
%ADD29C,0.04331*%
%ADD30C,0.47244*%
%ADD31C,0.00591*%
%ADD32C,0.00787*%
D31*
X25591Y28346D02*
G03*
X25591Y14961I0J-6693D01*
G01*
X20779Y-12984D02*
X23563Y-10200D01*
X31358Y-17995D01*
X30801Y-18552D02*
X31358Y-17995D01*
X10200Y-23563D02*
X12984Y-20779D01*
X10200Y-23563D02*
X17995Y-31358D01*
X18552Y-30801D01*
X34646Y13780D02*
Y17323D01*
X16535Y13780D02*
X34646D01*
X16535D02*
Y17323D01*
X34646Y25984D02*
Y29528D01*
X16535D02*
X34646D01*
X16535Y25984D02*
Y29528D01*
X25591Y28346D02*
X33465D01*
Y25984D02*
Y28346D01*
X25591Y14961D02*
X33465D01*
Y17323D01*
X25591Y17717D02*
Y25591D01*
X21654Y21654D02*
X29528D01*
X-40354Y-9449D02*
X-26575D01*
Y-2362D01*
X-40354D02*
X-26575D01*
X-40354Y-9449D02*
Y-2362D01*
X-26048Y-12049D02*
X-19923Y-18174D01*
X-33007Y-31258D02*
X-19923Y-18174D01*
X-39132Y-25133D02*
X-33007Y-31258D01*
X-39132Y-25133D02*
X-26048Y-12049D01*
X-18174Y-19923D02*
X-12049Y-26048D01*
X-25133Y-39132D02*
X-12049Y-26048D01*
X-31258Y-33007D02*
X-25133Y-39132D01*
X-31258Y-33007D02*
X-18174Y-19923D01*
X-9449Y-38976D02*
X9449D01*
Y-27953D01*
X-9449D02*
X9449D01*
X-9449Y-38976D02*
Y-27953D01*
X-4921Y-25197D02*
Y-18110D01*
X8858D01*
Y-25197D02*
Y-18110D01*
X-4921Y-25197D02*
X8858D01*
X26087Y-35831D02*
X31098Y-40842D01*
X26087Y-35831D02*
X35831Y-26087D01*
X40842Y-31098D01*
X31098Y-40842D02*
X40842Y-31098D01*
X18110Y4921D02*
X25197D01*
Y-8858D02*
Y4921D01*
X18110Y-8858D02*
X25197D01*
X18110D02*
Y4921D01*
X38976Y-9449D02*
Y9449D01*
X27953D02*
X38976D01*
X27953Y-9449D02*
Y9449D01*
Y-9449D02*
X38976D01*
X52756D02*
Y9449D01*
X41732D02*
X52756D01*
X41732Y-9449D02*
Y9449D01*
Y-9449D02*
X52756D01*
X18701Y31890D02*
Y38976D01*
X32480D01*
Y31890D02*
Y38976D01*
X18701Y31890D02*
X32480D01*
X21128Y9973D02*
X20472Y10629D01*
X19160D01*
X18504Y9973D01*
Y7349D01*
X19160Y6693D01*
X20472D01*
X21128Y7349D01*
X22440Y6693D02*
X23752D01*
X23096D01*
Y10629D01*
X22440Y9973D01*
X-10368Y-18767D02*
X-11024Y-18112D01*
X-12336D01*
X-12992Y-18767D01*
Y-21391D01*
X-12336Y-22047D01*
X-11024D01*
X-10368Y-21391D01*
X-6433Y-22047D02*
X-9056D01*
X-6433Y-19423D01*
Y-18767D01*
X-7089Y-18112D01*
X-8400D01*
X-9056Y-18767D01*
X40481Y-24172D02*
X39553D01*
X38626Y-25100D01*
Y-26027D01*
X40481Y-27883D01*
X41409D01*
X42336Y-26955D01*
Y-26027D01*
X41409Y-23244D02*
Y-22317D01*
X42336Y-21389D01*
X43264Y-21389D01*
X43728Y-21853D01*
Y-22781D01*
X43264Y-23244D01*
X43728Y-22781D01*
X44655Y-22781D01*
X45119Y-23244D01*
Y-24172D01*
X44192Y-25100D01*
X43264D01*
X24671Y43831D02*
X24015Y44487D01*
X22703D01*
X22047Y43831D01*
Y41207D01*
X22703Y40551D01*
X24015D01*
X24671Y41207D01*
X27951Y40551D02*
Y44487D01*
X25983Y42519D01*
X28607D01*
X39238Y29658D02*
X38582Y30314D01*
X37270D01*
X36614Y29658D01*
Y27034D01*
X37270Y26378D01*
X38582D01*
X39238Y27034D01*
X43174Y30314D02*
X40550D01*
Y28346D01*
X41862Y29002D01*
X42518D01*
X43174Y28346D01*
Y27034D01*
X42518Y26378D01*
X41206D01*
X40550Y27034D01*
X-3543Y-40552D02*
Y-44488D01*
X-919D01*
X3016D02*
X392D01*
X3016Y-41864D01*
Y-41208D01*
X2360Y-40552D01*
X1048D01*
X392Y-41208D01*
X-38610Y-16902D02*
X-35827Y-19685D01*
X-33971Y-17830D01*
X-35363Y-14583D02*
Y-13655D01*
X-34435Y-12728D01*
X-33508Y-12728D01*
X-33044Y-13191D01*
Y-14119D01*
X-33508Y-14583D01*
X-33044Y-14119D01*
X-32116Y-14119D01*
X-31652Y-14583D01*
Y-15511D01*
X-32580Y-16438D01*
X-33508D01*
X-19712Y-35800D02*
X-16929Y-38583D01*
X-15074Y-36727D01*
X-12755Y-34408D02*
X-15538Y-31625D01*
Y-34408D01*
X-13682Y-32553D01*
X36220Y14959D02*
Y11024D01*
X38844D01*
X42780Y14959D02*
X40156D01*
Y12991D01*
X41468Y13647D01*
X42124D01*
X42780Y12991D01*
Y11680D01*
X42124Y11024D01*
X40812D01*
X40156Y11680D01*
X46063Y14959D02*
Y11024D01*
X48687D01*
X52623Y14959D02*
X51311Y14303D01*
X49999Y12991D01*
Y11680D01*
X50655Y11024D01*
X51967D01*
X52623Y11680D01*
Y12336D01*
X51967Y12991D01*
X49999D01*
X-47638Y-7874D02*
Y-3938D01*
X-45670D01*
X-45014Y-4594D01*
Y-5906D01*
X-45670Y-6562D01*
X-47638D01*
X-46326D02*
X-45014Y-7874D01*
X-43702D02*
X-42390D01*
X-43046D01*
Y-3938D01*
X-43702Y-4594D01*
X-40945Y28740D02*
Y32676D01*
X-38977D01*
X-38321Y32020D01*
Y30708D01*
X-38977Y30052D01*
X-40945D01*
X-39633D02*
X-38321Y28740D01*
X-34385D02*
X-37009D01*
X-34385Y31364D01*
Y32020D01*
X-35041Y32676D01*
X-36353D01*
X-37009Y32020D01*
X32256Y-19264D02*
X34112Y-21120D01*
X35967D01*
Y-19264D01*
X34112Y-17409D01*
X35039Y-16481D02*
X36895Y-14626D01*
X35967Y-15554D01*
X38750Y-18337D01*
X40605Y-16481D02*
X41533Y-15554D01*
X41069Y-16017D01*
X38286Y-13234D01*
Y-14162D01*
X-10236Y-51182D02*
Y-55118D01*
X-7612D01*
X-6301D02*
X-4989D01*
X-5644D01*
Y-51182D01*
X-6301Y-51838D01*
X-9449Y46062D02*
Y42126D01*
X-6825D01*
X-5513Y46062D02*
Y42782D01*
X-4857Y42126D01*
X-3545D01*
X-2889Y42782D01*
Y46062D01*
X-1577Y42126D02*
Y46062D01*
X-265Y44750D01*
X1046Y46062D01*
Y42126D01*
X4982Y46062D02*
X2358D01*
Y42126D01*
X4982D01*
X2358Y44094D02*
X3670D01*
X6294Y46062D02*
X8918Y42126D01*
Y46062D02*
X6294Y42126D01*
X-5512Y53542D02*
Y49606D01*
X-2888D01*
X1048Y52886D02*
X392Y53542D01*
X-920D01*
X-1576Y52886D01*
Y50262D01*
X-920Y49606D01*
X392D01*
X1048Y50262D01*
Y51574D01*
X-264D01*
X4984Y53542D02*
X3672Y52886D01*
X2360Y51574D01*
Y50262D01*
X3016Y49606D01*
X4327D01*
X4984Y50262D01*
Y50918D01*
X4327Y51574D01*
X2360D01*
X-2494Y22965D02*
X-3150Y23621D01*
X-4462D01*
X-5118Y22965D01*
Y20341D01*
X-4462Y19685D01*
X-3150D01*
X-2494Y20341D01*
Y21653D01*
X-3806D01*
X-1182Y19685D02*
Y23621D01*
X1441Y19685D01*
Y23621D01*
X2753D02*
Y19685D01*
X4721D01*
X5377Y20341D01*
Y22965D01*
X4721Y23621D01*
X2753D01*
X-28136Y-44868D02*
X-26281Y-46724D01*
X-46837Y-26168D02*
X-44982Y-28023D01*
Y-26168D02*
X-46837Y-28023D01*
D32*
X-32402Y13780D02*
G03*
X-32402Y13780I-5000J0D01*
G01*
X-25179Y16835D02*
G03*
X-34087Y25934I-12222J-3056D01*
G01*
X-34346Y1557D02*
G03*
X-25179Y10724I-3056J12222D01*
G01*
X-40457Y26002D02*
G03*
X-40457Y1557I3056J-12222D01*
G01*
X-37402Y8779D02*
Y18779D01*
X-42402Y13780D02*
X-32402D01*
M02*
