M48
;FILE_FORMAT=2:2
INCH
T01C0.016
T02C0.024
T03C0.028
T04C0.059
T05C0.079
T06C0.083
T07C0.098
%
;TYPE=PLATED
T01
X+018877Y+013287
Y+012303
;TYPE=PLATED
T03
X+013070Y+007204
X+015944Y+015826
Y+016496
Y+017165
Y+017834
X+005314Y+009842
Y+013779
;TYPE=PLATED
T04
X+007086Y+014566
Y+009055
;TYPE=NON_PLATED
T05
X+007086Y+007086
Y+016535
X+017913Y+014763
;TYPE=PLATED
T06
X+009251Y+009251
Y+003543
Y+014370
X+014370Y+003543
Y+009251
Y+014370
;TYPE=NON_PLATED
T07
X+011811Y+017322
T00
M30
