M48
;FILE_FORMAT=2:2
INCH,TZ
T01C0.016
T02C0.020
T03C0.024
T04C0.028
T05C0.035
T06C0.039
T07C0.043
T08C0.039
T09C0.055
T10C0.079
T11C0.087
T12C0.126
%
;TYPE=PLATED
T01
X+7440Y+6791
X+9311Y+5295
X+11732Y+6259
X+9606Y+10314
X+9370Y+9389
X+13641Y+6614
X+15964Y+9783
X+17066Y+10728
X+19665Y+10826
X+19350Y+11397
X+23661Y+7421
X+21988Y+6555
X+23267Y+6437
X+24448Y+5354
X+27677Y+5413
X+35417Y+10318
Y+10751
X+38409Y+7287
X+38586Y+8389
X+36381Y+7208
X+36460Y+9551
X+38232Y+10318
X+53602Y+10098
X+52381Y+11122
X+56122Y+10590
X+55098Y+9704
X+59448Y+7342
X+58169Y+8228
X+59566Y+9625
X+58326Y+10295
X+68661Y+5531
X+66535Y+11279
X+68543Y+10177
Y+9685
X+68366Y+12460
X+70157Y+5216
X+85511Y+5610
X+85000Y+8700
X+87814Y+5472
X+88917Y+7578
X+87618Y+8110
X+89133Y+6988
X+89015Y+10137
X+88267Y+10059
X+91062Y+7933
X+91535Y+10196
X+92440Y+13622
X+93996Y+10078
X+93464Y+9881
X+100039Y+8759
X+100452Y+7874
X+101377Y+7440
X+100531Y+9625
X+101377Y+10059
X+102657Y+8759
X+8169Y+6141
X+10118Y+5944
X+13248Y+5905
X+14074Y+9330
X+18877Y+11909
X+28110Y+6043
X+37799Y+9196
X+39393Y+9000
X+54271Y+9212
X+83543Y+6161
X+8838Y+6791
X+12106Y+9665
X+17755Y+10314
X+17972Y+9724
X+26909Y+5078
X+57047Y+6870
X+57066Y+8208
X+57047Y+7421
X+69074Y+10590
X+69015Y+11220
X+87125Y+6555
X+89507Y+8464
X+89822Y+6574
X+84074Y+6161
X+87381Y+5984
X+90039Y+5925
X+89960Y+9114
;TYPE=PLATED
T02
X+61023Y+7086
X+60039
;TYPE=PLATED
T03
X+106692Y+8267
Y+7283
X+111023Y+8267
Y+7283
X+71653Y+6510
X+70078
X+70866Y+6299
X+72229Y+8661
X+70866Y+9448
X+71653Y+9237
X+69502Y+7086
X+72440Y+7874
X+72229Y+7086
X+69291Y+7874
X+69502Y+8661
X+26560Y+9645
Y+8070
X+26771Y+8858
X+24409Y+10222
X+23622Y+8858
X+23833Y+9645
X+25984Y+7494
X+25196Y+10433
X+25984Y+10222
X+25196Y+7283
X+24409Y+7494
;TYPE=PLATED
T04
X+42759Y+5673
X+44177Y+6716
X+43212Y+6460
X+53543Y+5118
Y+7086
X+54527Y+5118
Y+7086
X+61023Y+5118
X+39551Y+12188
X+41618Y+6027
X+42562Y+6283
X+44374Y+6106
X+43409Y+5850
X+53070Y+11870
X+41814Y+5417
X+60039Y+5118
X+38763Y+12188
X+53818Y+11870
;TYPE=PLATED
T05
X+33350Y+9433
Y+8448
X+59078Y+12086
X+57110
X+56125
X+58094
X+36889Y+6322
X+38858
X+39842
X+37874
X+62125Y+12086
X+61141
;TYPE=PLATED
T06
X+108976Y+8267
X+107992
;TYPE=NON_PLATED
T07
X+53543Y+6102
X+60039
;TYPE=PLATED
T08
X+5433Y+8165
Y+7181
Y+11118
Y+10133
Y+6196
Y+9149
X+95728Y+11618
Y+12602
Y+8665
Y+9649
Y+13586
Y+10633
X+2913Y+11122
Y+10137
X+95728Y+6692
Y+5708
;TYPE=NON_PLATED
T09
X+61023Y+6102
X+54527
;TYPE=NON_PLATED
T10
X+35141Y+8862
X+44157Y+11283
;TYPE=NON_PLATED
T11
X+110826Y+13188
X+107677Y+5905
;TYPE=NON_PLATED
T12
X+1574Y+7086
X+34649Y+6106
X+37515Y+12011
X+29921Y+11417
X+33862Y+11795
X+47641Y+6106
Y+11814
X+46185Y+8468
X+67125Y+7086
X+70866Y+7874
X+63976Y+8661
X+104133Y+6102
Y+10826
X+50590Y+8661
X+25196Y+8858
X+98622Y+6102
Y+10826
T00
M30
